<?xml version="1.0" standalone="no"?>
<!DOCTYPE svg PUBLIC "-//W3C//DTD SVG 1.1//EN" "http://www.w3.org/Graphics/SVG/1.1/DTD/svg11.dtd" >
<svg>
<metadata>
Created by FontForge 20120731 at Sat Aug 27 17:30:49 2016
 By www
Copyright (c) 2012 by Rodrigo Saiani. All rights reserved.
</metadata>
<defs>
<font id="MotivaSnsW01-Lt" horiz-adv-x="797" >
  <font-face 
    font-family="MotivaSnsW01-Lt"
    font-weight="300"
    font-stretch="normal"
    units-per-em="1000"
    panose-1="0 0 4 0 0 0 0 0 0 0"
    ascent="752"
    descent="-248"
    x-height="524"
    cap-height="700"
    bbox="-68 -208 1056 912"
    underline-thickness="50"
    underline-position="-75"
    unicode-range="U+0002-2122"
  />
<missing-glyph horiz-adv-x="295" 
 />
    <glyph glyph-name=".notdef" horiz-adv-x="295" 
 />
    <glyph glyph-name=".null" horiz-adv-x="0" 
 />
    <glyph glyph-name="uni000D" unicode="&#xd;" horiz-adv-x="295" 
 />
    <glyph glyph-name="uni0002" horiz-adv-x="0" 
 />
    <glyph glyph-name="uni0009" unicode="&#x9;" horiz-adv-x="295" 
 />
    <glyph glyph-name="uni000A" unicode="&#xa;" horiz-adv-x="0" 
 />
    <glyph glyph-name="space" unicode=" " horiz-adv-x="295" 
 />
    <glyph glyph-name="exclam" unicode="!" horiz-adv-x="294" 
d="M118 200l-14 501h94l-17 -501h-63zM147 110q26 0 42.5 -16t16.5 -45q0 -30 -16.5 -45.5t-42.5 -15.5t-42.5 15.5t-16.5 45.5q0 29 16.5 45t42.5 16z" />
    <glyph glyph-name="quotedbl" unicode="&#x22;" horiz-adv-x="433" 
d="M120 478l-13 222h76l-11 -222h-52zM261 478l-13 222h77l-12 -222h-52z" />
    <glyph glyph-name="numbersign" unicode="#" horiz-adv-x="687" 
d="M468 257h159v-52h-166l-26 -205h-55l26 205h-168l-26 -205h-57l27 205h-145v52h151l26 195h-155v52h162l26 196h55l-25 -196h167l24 196h55l-24 -196h151v-52h-158zM270 452l-25 -195h168l24 195h-167z" />
    <glyph glyph-name="dollar" unicode="$" horiz-adv-x="569" 
d="M474 592q-42 27 -89 42.5t-96 15.5q-69 0 -110 -31t-41 -84q0 -33 16.5 -55.5t45 -40t66 -32.5t79.5 -32t75.5 -34.5t57 -39t36 -49t12.5 -65.5q0 -41 -15 -76t-43 -61t-69 -42t-93 -19l5 -100h-65l5 100q-54 4 -106 20t-94 42l28 61q43 -25 95 -40t108 -15
q43 0 74.5 9.5t52 26t30.5 38.5t10 47q0 30 -13 51t-36 37.5t-55 30.5t-71 29q-42 16 -80 34t-67.5 41t-46.5 54.5t-17 75.5q0 37 13.5 69t40 56t65 38t88.5 17l-4 92h65l-4 -93q63 -5 108 -24.5t74 -37.5z" />
    <glyph glyph-name="percent" unicode="%" horiz-adv-x="746" 
d="M185 711q31 0 57.5 -10.5t46 -30t31 -49t11.5 -66.5q0 -38 -11 -67t-30.5 -48.5t-46 -30t-57.5 -10.5q-30 0 -57.5 10t-47.5 30t-32 49.5t-12 67.5t12 67t32 49t47 30t57 10v-1zM111 -1l471 700h62l-472 -700h-61zM185 660q-40 0 -63.5 -27t-23.5 -77q0 -51 23.5 -78
t63.5 -27q42 0 63.5 27t21.5 78q0 50 -21.5 77t-63.5 27zM564 300q30 0 57 -10.5t46.5 -30.5t31 -49t11.5 -67t-11.5 -67t-31 -48.5t-46 -30t-56.5 -10.5q-31 0 -58 10t-47.5 30t-32.5 49.5t-12 67.5t12 67.5t32 49.5t47.5 30t57.5 10v-1zM563 249q-40 0 -63 -27.5
t-23 -77.5t23 -77.5t63 -27.5q42 0 63 27.5t21 77.5t-21 77.5t-63 27.5z" />
    <glyph glyph-name="ampersand" unicode="&#x26;" horiz-adv-x="727" 
d="M501 93q-42 -58 -93.5 -83t-120.5 -25q-52 0 -91 12.5t-64.5 34t-38.5 51t-13 64.5q0 49 27 93.5t87 88.5l32 24l-2 2q-26 24 -46.5 45t-35.5 43t-23 45.5t-8 53.5q0 36 12 66.5t36 53t59.5 35t82.5 12.5q43 0 77 -11t57.5 -30t36 -46t12.5 -58q0 -27 -8.5 -51.5
t-22.5 -46t-32.5 -40t-37.5 -33.5l-52 -40l156 -148q8 15 14.5 31.5t13.5 34.5l37 98l64 -24l-40 -102q-9 -23 -18 -44t-19 -40l132 -125l-51 -51zM329 430q38 29 61 61t23 70q0 24 -9 40.5t-24.5 26.5t-35.5 14.5t-42 4.5q-60 0 -89 -27.5t-29 -75.5q0 -21 6 -37.5t17 -32
t28 -32t40 -36.5l10 -9zM229 276q-41 -30 -58 -59.5t-17 -61.5q0 -45 31.5 -74t95.5 -29q103 0 169 90l-177 167z" />
    <glyph glyph-name="quotesingle" unicode="'" horiz-adv-x="250" 
d="M100 478l-13 222h77l-12 -222h-52z" />
    <glyph glyph-name="parenleft" unicode="(" horiz-adv-x="371" 
d="M312 759q-13 -12 -40.5 -39.5t-55 -75.5t-48.5 -120t-21 -175t21 -176t49 -122.5t55.5 -78t40.5 -40.5l-29 -35q-15 10 -49 38.5t-69.5 82.5t-62.5 135t-27 196q0 76 12.5 137.5t32 109t43.5 82.5t47.5 59t43 38t29.5 20z" />
    <glyph glyph-name="parenright" unicode=")" horiz-adv-x="372" 
d="M87 796q3 -2 19.5 -14.5t39.5 -36.5t49.5 -60t48.5 -85t36.5 -111.5t14.5 -138.5q0 -77 -14.5 -139.5t-37 -112t-48.5 -86.5t-49.5 -61.5t-40 -37.5t-19.5 -15l-29 35q3 2 29 29t56.5 79t55.5 129t25 180q0 68 -11.5 125t-29.5 102t-39 78.5t-39 56.5t-31 35t-15 13z" />
    <glyph glyph-name="asterisk" unicode="*" horiz-adv-x="425" 
d="M322 706l24 -40l-96 -53l95 -49l-23 -40l-92 56l7 -105h-50l4 105l-88 -56l-24 39l96 49l-97 52l25 41l89 -56l-4 104h50l-7 -105z" />
    <glyph glyph-name="plus" unicode="+" horiz-adv-x="729" 
d="M611 382v-61h-217v-228h-61v228h-216v61h216v228h61v-228h217z" />
    <glyph glyph-name="comma" unicode="," horiz-adv-x="315" 
d="M97 -93q46 46 52 93q-17 2 -32 15.5t-15 36.5q0 26 15.5 38.5t37.5 12.5q25 0 39.5 -17t14.5 -46q0 -34 -18.5 -75t-67.5 -78z" />
    <glyph glyph-name="hyphen" unicode="-" horiz-adv-x="454" 
d="M86 261v63h282v-63h-282z" />
    <glyph glyph-name="period" unicode="." horiz-adv-x="319" 
d="M159 105q25 0 41.5 -15t16.5 -44t-16.5 -44t-41.5 -15t-41.5 15t-16.5 44t16.5 44.5t41.5 15.5v-1z" />
    <glyph glyph-name="slash" unicode="/" horiz-adv-x="353" 
d="M18 -41l270 793h68l-269 -793h-69z" />
    <glyph glyph-name="zero" unicode="0" horiz-adv-x="642" 
d="M321 712q53 0 101.5 -21t85.5 -65.5t59 -113.5t22 -165q0 -92 -22 -160t-59 -112t-85.5 -65.5t-101.5 -21.5t-101.5 21.5t-85.5 65.5t-59 112t-22 160q0 96 22 165t59 113.5t85.5 65.5t101.5 21zM321 642q-88 0 -139.5 -75t-51.5 -220q0 -140 51.5 -214.5t139.5 -74.5
t139.5 75.5t51.5 213.5q0 145 -51.5 220t-139.5 75z" />
    <glyph glyph-name="one" unicode="1" horiz-adv-x="553" 
d="M474 -1h-375v67h150v550l-167 -80l-30 56l218 111h56v-636h148v-68z" />
    <glyph glyph-name="two" unicode="2" horiz-adv-x="636" 
d="M66 638q44 30 101.5 52t132.5 22q59 0 105 -15t77 -42t47 -64.5t16 -82.5q0 -42 -14 -77t-40 -67.5t-62 -66t-81 -72.5l-177 -155h396v-70h-492v69l198 175q42 37 77.5 67t61.5 59t40.5 59.5t14.5 69.5q0 71 -47 106.5t-128 35.5q-63 0 -109.5 -18.5t-79.5 -44.5z" />
    <glyph glyph-name="three" unicode="3" horiz-adv-x="615" 
d="M58 629q45 38 101.5 60.5t133.5 22.5q59 0 103.5 -13.5t74 -36t44.5 -51.5t15 -61q0 -65 -36.5 -107.5t-93.5 -62.5v-3q34 -4 64 -18t52 -36t34.5 -51t12.5 -63q0 -49 -21 -89.5t-58 -70t-89 -45.5t-113 -16q-73 0 -136 21t-109 57l40 60q35 -26 85.5 -46t113.5 -20
q52 0 91 12.5t65 32.5t39.5 46.5t13.5 55.5q0 71 -53 101.5t-160 30.5h-71v68h66q38 0 71.5 7.5t59 22.5t40.5 38t15 55q0 48 -45.5 80.5t-125.5 32.5q-54 0 -99.5 -19t-83.5 -48z" />
    <glyph glyph-name="four" unicode="4" horiz-adv-x="660" 
d="M607 191h-110v-191h-76v191h-360v57l371 452h65v-445h110v-64zM146 254h276v338z" />
    <glyph glyph-name="five" unicode="5" horiz-adv-x="637" 
d="M177 632v-238q63 44 158 44q45 0 87.5 -12.5t75.5 -38.5t53 -65.5t20 -93.5t-18.5 -98.5t-53.5 -76t-85.5 -48.5t-114.5 -17q-67 0 -119 15.5t-92 48.5l36 58q69 -50 174 -50q44 0 80.5 11.5t62.5 33.5t40 53t14 69q0 37 -13.5 64t-36.5 45t-53.5 27t-65.5 9
q-89 0 -164 -56l-55 34v353h417v-71h-347z" />
    <glyph glyph-name="six" unicode="6" horiz-adv-x="615" 
d="M520 594q-74 45 -168 45q-42 0 -83 -14.5t-73 -49t-52 -92.5t-20 -145q21 20 44 37.5t50 30t60 20t73 7.5q41 0 83 -12.5t75.5 -38t54.5 -65.5t21 -95q0 -50 -19 -93t-53 -74.5t-79.5 -49.5t-99.5 -18q-67 0 -120 21t-89.5 64t-55.5 109.5t-19 157.5q0 101 26.5 172
t69 115.5t97 65t111.5 20.5q75 0 122 -15.5t84 -40.5zM334 364q-60 0 -113 -27t-89 -75q5 -99 57.5 -153t139.5 -54q42 0 75 12.5t56 34.5t35.5 52t12.5 65q0 36 -13.5 63t-36.5 45t-55 27t-68 9z" />
    <glyph glyph-name="seven" unicode="7" horiz-adv-x="580" 
d="M208 -1h-83l323 632h-418v69h498v-66z" />
    <glyph glyph-name="eight" unicode="8" horiz-adv-x="618" 
d="M310 711q54 0 97 -13t73 -36.5t46 -55.5t16 -70q0 -57 -30 -97t-84 -60q28 -6 53 -22.5t44 -41t30 -55t11 -65.5q0 -45 -16.5 -83.5t-49 -66t-80 -43t-110.5 -15.5q-64 0 -112 15.5t-80.5 43t-48.5 65.5t-16 83q0 35 11 65.5t30 55t45 41.5t55 24q-54 19 -85 59.5
t-31 97.5q0 38 16.5 70t46.5 55.5t73 36.5t96 13v-1zM310 643q-72 0 -113.5 -30.5t-41.5 -84.5q0 -29 12.5 -50.5t33.5 -36t49 -22t60 -7.5q33 0 61.5 7.5t49.5 22t33 36t12 50.5q0 54 -41.5 84.5t-114.5 30.5zM312 344q-40 0 -73.5 -10.5t-57.5 -30t-37 -46t-13 -58.5
q0 -64 45 -104t135 -40t133.5 40t43.5 104q0 32 -13 58.5t-36 46t-56 30t-73 10.5h2z" />
    <glyph glyph-name="nine" unicode="9" horiz-adv-x="608" 
d="M83 99q39 -23 79.5 -33t83.5 -10q48 0 91 16.5t75 53t51 94.5t19 141q-26 -23 -51 -40t-52 -28t-57 -16t-66 -5q-45 0 -85.5 14t-70.5 41.5t-48 68t-18 94.5q0 51 20 92t53 69.5t77 43.5t92 15q137 0 209 -81.5t72 -246.5q0 -110 -24 -185t-66 -122t-98.5 -67.5
t-121.5 -20.5q-66 0 -111.5 15.5t-82.5 37.5zM282 640q-40 0 -72 -11t-54.5 -30.5t-35 -47t-12.5 -60.5q0 -70 40.5 -108.5t111.5 -38.5q31 0 64 7t62.5 19.5t53 29.5t37.5 38q-2 54 -19.5 92t-45 62.5t-61.5 36t-68 11.5h-1z" />
    <glyph glyph-name="colon" unicode=":" horiz-adv-x="319" 
d="M159 536q26 0 42.5 -16t16.5 -45q0 -30 -16.5 -45.5t-42.5 -15.5t-42.5 15.5t-16.5 45.5q0 29 16.5 45t42.5 16zM159 109q26 0 42.5 -16t16.5 -45t-16.5 -44.5t-42.5 -15.5t-42.5 15.5t-16.5 44.5t16.5 45t42.5 16z" />
    <glyph glyph-name="semicolon" unicode=";" horiz-adv-x="319" 
d="M159 535q25 0 41 -15.5t16 -44.5t-16 -44t-41 -15t-41.5 15t-16.5 44t16.5 44.5t41.5 15.5zM98 -93q46 46 52 93q-17 2 -32 15.5t-15 36.5q0 26 15.5 38.5t37.5 12.5q25 0 39.5 -17t14.5 -46q0 -34 -18.5 -75t-67.5 -78z" />
    <glyph glyph-name="less" unicode="&#x3c;" horiz-adv-x="500" 
d="M103 290l327 -206l-33 -52l-368 230v55l369 232l34 -56z" />
    <glyph glyph-name="equal" unicode="=" horiz-adv-x="690" 
d="M113 375v58h460v-58h-460zM113 175v56h460v-56h-460z" />
    <glyph glyph-name="greater" unicode="&#x3e;" horiz-adv-x="498" 
d="M470 262l-367 -229l-34 51l328 206l-329 203l33 57l368 -233z" />
    <glyph glyph-name="question" unicode="?" horiz-adv-x="529" 
d="M34 645q32 27 86.5 46.5t120.5 19.5q49 0 87.5 -13t64.5 -35t40 -51.5t14 -62.5q0 -39 -14.5 -68.5t-36 -54t-46.5 -46t-47 -45.5t-36.5 -52.5t-14.5 -65.5h-65q0 43 13.5 74.5t34 57t44.5 46.5t44.5 42.5t34 46t13.5 55.5q0 52 -36 80t-97 28q-53 0 -94.5 -13.5
t-74.5 -38.5zM223 109q26 0 42.5 -16t16.5 -45t-16.5 -44.5t-42.5 -15.5t-42.5 15.5t-16.5 44.5t16.5 45t42.5 16z" />
    <glyph glyph-name="at" unicode="@" horiz-adv-x="879" 
d="M614 -104q-20 -7 -44 -12.5t-48.5 -9.5t-47.5 -6t-41 -2q-79 0 -148 18t-120.5 60.5t-81 113t-29.5 176.5q0 92 32.5 167t90.5 128t137.5 81.5t173.5 28.5q73 0 135 -21t107 -62.5t70.5 -102t25.5 -138.5q0 -54 -14 -100.5t-39.5 -80.5t-62 -53.5t-81.5 -19.5
q-75 0 -105 53q-23 -23 -55.5 -37t-74.5 -14q-26 0 -50.5 9.5t-44 29.5t-31 51.5t-11.5 75.5q0 49 16 88t45.5 66t69.5 41t88 14t78.5 -8.5t50.5 -16.5l-30 -206q-7 -47 11 -67.5t46 -20.5q57 0 92 50.5t35 144.5q0 67 -21 116.5t-58.5 82.5t-90.5 49t-116 16
q-74 0 -137.5 -23t-111 -68t-74.5 -111.5t-27 -152.5q0 -83 23 -140t63.5 -92t95.5 -51t119 -16q16 0 38.5 2t45.5 5.5t46 8t41 10.5zM535 371q-2 0 -20.5 5t-49.5 5q-33 0 -58.5 -11t-43.5 -31t-27.5 -47t-9.5 -58q0 -62 25.5 -87.5t61.5 -25.5q31 0 55 13.5t41 37.5
q0 14 3 31z" />
    <glyph glyph-name="A" unicode="A" horiz-adv-x="691" 
d="M180 178l-64 -178h-78l260 700h93l262 -700h-83l-64 178h-326zM344 628l-140 -385h278z" />
    <glyph glyph-name="B" unicode="B" horiz-adv-x="633" 
d="M298 701q111 0 167 -44.5t56 -123.5q0 -29 -8.5 -54t-23 -46t-33 -37t-39.5 -26q26 -6 52.5 -19.5t48 -35.5t35 -52.5t13.5 -70.5q0 -51 -18.5 -87t-51 -59.5t-76.5 -34.5t-96 -11h-237v700zM285 388q75 0 118 35t43 95q0 34 -12.5 56.5t-34.5 36t-52 19.5t-64 6h-121
v-248h123zM313 66q92 0 134 34.5t42 91.5q0 133 -170 133h-158v-260z" />
    <glyph glyph-name="C" unicode="C" horiz-adv-x="659" 
d="M630 68q-45 -38 -105 -60t-135 -22q-65 0 -123 20.5t-102.5 64t-70.5 111.5t-27 164t25 165t70.5 113.5t104 65.5t125.5 21q70 0 126 -16.5t95 -45.5l-38 -56q-80 52 -186 52q-49 0 -93.5 -17.5t-78.5 -53.5t-54 -92t-20 -134q0 -79 20 -135t54.5 -91.5t79.5 -51.5
t95 -15q61 1 108.5 18t89.5 51z" />
    <glyph glyph-name="D" unicode="D" horiz-adv-x="689" 
d="M284 700q69 0 130.5 -19t107.5 -60.5t73 -106.5t27 -158q0 -92 -27 -159.5t-73 -111t-107.5 -64.5t-130.5 -21h-197v700h197zM161 69h132q119 0 185.5 71t66.5 216t-66.5 211.5t-185.5 66.5h-132v-565z" />
    <glyph glyph-name="E" unicode="E" horiz-adv-x="574" 
d="M160 635v-244h322v-66h-322v-257h363v-68h-437v700h437v-65h-363z" />
    <glyph glyph-name="F" unicode="F" horiz-adv-x="514" 
d="M160 635v-262h284v-66h-284v-307h-74v700h399v-66z" />
    <glyph glyph-name="G" unicode="G" horiz-adv-x="742" 
d="M652 106q-42 -52 -108.5 -84.5t-160.5 -32.5q-62 0 -119 21t-100.5 66t-69 114.5t-25.5 165.5q0 88 25 155t68.5 112t102 67.5t126.5 22.5q47 0 84 -7.5t66.5 -19.5t52.5 -27.5t42 -31.5l-43 -53q-42 33 -91.5 52.5t-115.5 19.5q-52 0 -96.5 -18.5t-76.5 -54.5t-50.5 -90
t-18.5 -126q0 -74 18 -129.5t50.5 -92.5t78 -55.5t99.5 -18.5q34 0 63.5 7t53.5 18t42 24.5t29 26.5v183h-220v63h293z" />
    <glyph glyph-name="H" unicode="H" horiz-adv-x="713" 
d="M553 0v322h-393v-322h-74v700h74v-312h393v312h74v-700h-74z" />
    <glyph glyph-name="I" unicode="I" horiz-adv-x="267" 
d="M97 0v700h74v-700h-74z" />
    <glyph glyph-name="J" unicode="J" horiz-adv-x="457" 
d="M371 221q0 -72 -19 -118t-52 -71.5t-76.5 -35t-92.5 -9.5q-26 0 -47 2.5t-34 5.5l7 67q2 -1 17.5 -2.5t27.5 -1.5q46 0 82 5.5t61.5 24t39 53.5t13.5 93v466h73v-479z" />
    <glyph glyph-name="K" unicode="K" horiz-adv-x="627" 
d="M215 317l-54 -57v-260h-75v700h75v-350l322 350h93l-309 -328l333 -372h-99z" />
    <glyph glyph-name="L" unicode="L" horiz-adv-x="550" 
d="M501 66v-66h-415v700h74v-634h341z" />
    <glyph glyph-name="M" unicode="M" horiz-adv-x="868" 
d="M783 -1h-73v549l-255 -545h-40l-254 547v-550h-73v700h76l275 -597l267 597h76z" />
    <glyph glyph-name="N" unicode="N" horiz-adv-x="729" 
d="M580 0l-419 570v-570h-74v700h65l416 -570v570h74v-700h-62z" />
    <glyph glyph-name="O" unicode="O" 
d="M399 711q61 0 120.5 -20.5t106 -64.5t75.5 -112t29 -162q0 -95 -29 -164t-75.5 -113.5t-106 -66t-120.5 -21.5t-120.5 21.5t-106.5 66t-76 113.5t-29 164t29 163t76 112t106.5 64.5t120.5 20.5v-1zM400 645q-52 0 -98.5 -18t-81.5 -54t-55.5 -91t-20.5 -129
q0 -73 20 -129t54.5 -93.5t80.5 -57t97 -19.5q52 0 98.5 18.5t82 56t56.5 93t21 130.5q0 74 -20.5 129t-56 91t-81.5 54t-97 18z" />
    <glyph glyph-name="P" unicode="P" horiz-adv-x="558" 
d="M293 698q59 0 103 -14.5t73.5 -41.5t44.5 -64.5t15 -83.5q0 -45 -15 -85t-44 -70t-73.5 -47.5t-102.5 -17.5h-133v-274h-74v700zM161 337h126q81 0 123 40.5t42 115.5q0 74 -43 107t-122 33h-126v-296z" />
    <glyph glyph-name="Q" unicode="Q" 
d="M399 -13q-61 0 -120.5 21.5t-106.5 66t-76 113.5t-29 164t29 163t76 112t106.5 64.5t120.5 20.5t120.5 -20.5t106 -64.5t75.5 -112t29 -162q0 -74 -18 -132t-48.5 -101t-71 -71.5t-86.5 -43.5l200 -94l-34 -61l-264 138zM396 55q52 0 98.5 18.5t82 56t56.5 93t21 130.5
q0 74 -20.5 129t-56 91t-81.5 54t-97 18q-52 0 -98.5 -18t-81.5 -54t-55.5 -91t-20.5 -129q0 -73 20 -129t54.5 -93.5t80.5 -57t97 -19.5z" />
    <glyph glyph-name="R" unicode="R" horiz-adv-x="639" 
d="M342 276h-17h-164v-276h-74v700h233q69 0 115 -16t74 -43.5t40 -63.5t12 -76q0 -75 -35.5 -132t-110.5 -80l177 -289h-83zM334 342q37 0 65 11.5t46.5 32t28 47.5t9.5 58q0 69 -39 106.5t-134 37.5h-149v-294z" />
    <glyph glyph-name="S" unicode="S" horiz-adv-x="569" 
d="M82 113q44 -26 97 -40.5t102 -14.5q91 0 131 35.5t40 87.5q0 27 -12.5 47.5t-35.5 37t-55.5 31t-72.5 29.5q-42 16 -80.5 34t-67.5 41t-46 55t-17 77q0 39 15.5 71.5t45 56.5t71 37.5t93.5 13.5q40 0 73 -6t59.5 -15t48 -20.5t38.5 -22.5l-33 -57q-42 27 -89 42.5
t-96 15.5q-69 0 -110 -30.5t-41 -86.5q0 -30 16 -52t44 -40t65.5 -33.5t80.5 -32.5q41 -17 74.5 -34t57 -39t36.5 -49.5t13 -63.5q0 -44 -16.5 -81t-47.5 -63.5t-76 -41t-102 -14.5q-59 0 -121 16.5t-111 47.5z" />
    <glyph glyph-name="T" unicode="T" horiz-adv-x="643" 
d="M359 634v-634h-74v634h-236v66h545v-66h-235z" />
    <glyph glyph-name="U" unicode="U" horiz-adv-x="698" 
d="M611 252q0 -72 -21.5 -122t-57.5 -82t-83.5 -46.5t-99.5 -14.5t-99.5 14.5t-84 46.5t-58 82t-21.5 122v448h74v-453q0 -89 49 -138.5t140 -49.5t140 49.5t49 138.5v453h74z" />
    <glyph glyph-name="V" unicode="V" horiz-adv-x="698" 
d="M303 0l-266 700h80l235 -633l228 633h81l-264 -700h-94z" />
    <glyph glyph-name="W" unicode="W" horiz-adv-x="1007" 
d="M687 -1l-185 589l-183 -589h-79l-213 700h79l176 -601l185 602h78l182 -601l177 601h77l-215 -700z" />
    <glyph glyph-name="X" unicode="X" horiz-adv-x="681" 
d="M623 0h-96l-213 307l-194 -307h-90l243 363l-232 337h97l180 -280l179 280h97l-235 -332z" />
    <glyph glyph-name="Y" unicode="Y" horiz-adv-x="651" 
d="M350 0h-74v280l-246 420h88l196 -351l195 351h84l-244 -420z" />
    <glyph glyph-name="Z" unicode="Z" horiz-adv-x="658" 
d="M148 66h439v-66h-525v61l418 573h-394v66h482v-56z" />
    <glyph glyph-name="bracketleft" unicode="[" horiz-adv-x="285" 
d="M144 737v-793h85v-59h-152v911h152v-59h-85z" />
    <glyph glyph-name="backslash" unicode="\" horiz-adv-x="357" 
d="M241 -41l-237 793h68l238 -793h-69z" />
    <glyph glyph-name="bracketright" unicode="]" horiz-adv-x="285" 
d="M56 -115v59h85v793h-85v59h152v-911h-152z" />
    <glyph glyph-name="asciicircum" unicode="^" horiz-adv-x="689" 
d="M328 695l-182 -275h-80l222 333h80l221 -333h-80z" />
    <glyph glyph-name="underscore" unicode="_" horiz-adv-x="720" 
d="M72 -63v55h578v-55h-578z" />
    <glyph glyph-name="grave" unicode="`" horiz-adv-x="310" 
d="M186 590l-118 115h101l75 -115h-58z" />
    <glyph glyph-name="a" unicode="a" horiz-adv-x="554" 
d="M80 466q38 31 85.5 50t110.5 19q102 0 148.5 -43.5t46.5 -141.5v-258q0 -18 7 -30.5t26 -12.5q5 0 10 0.5t6 0.5l-8 -47q-5 -5 -14.5 -6.5t-20.5 -1.5q-29 0 -46 13t-25 48q-31 -37 -72 -53t-95 -16q-41 0 -75 8.5t-59 27t-39 47.5t-14 69q0 41 17 69.5t45.5 46t66 25.5
t78.5 8q27 0 51.5 -1.5t43.5 -4t30.5 -4t12.5 -1.5v77q0 35 -9 58t-25.5 37t-40 19.5t-51.5 5.5q-51 0 -88.5 -14t-69.5 -40zM399 216q-21 4 -55 8.5t-77 4.5q-63 0 -102 -19.5t-39 -69.5q0 -27 10 -44.5t26.5 -28.5t38.5 -15.5t45 -4.5q51 0 90.5 19t62.5 57v93z" />
    <glyph glyph-name="b" unicode="b" horiz-adv-x="602" 
d="M159 459q31 38 74.5 58t94.5 20q49 0 89.5 -17.5t69.5 -51.5t45.5 -83t16.5 -113q0 -68 -17.5 -121t-49.5 -89.5t-77 -55.5t-100 -19q-45 0 -85 18t-68 53h-3l-14 -58h-49v752h72v-293h1zM155 127q22 -35 59.5 -55.5t89.5 -20.5q36 0 67 15t53.5 43.5t35.5 69.5t13 92
q0 48 -12 85t-33 62.5t-49.5 39t-61.5 13.5q-44 0 -82.5 -20t-77.5 -71z" />
    <glyph glyph-name="c" unicode="c" horiz-adv-x="536" 
d="M503 59q-14 -13 -33 -25.5t-43 -23t-54 -17t-64 -6.5q-54 0 -100.5 18t-81 53.5t-54 87t-19.5 119.5q0 66 20.5 116.5t55 85t80.5 52.5t96 18q60 0 106 -17.5t79 -46.5l-37 -51q-30 23 -62 37t-83 14q-39 0 -72.5 -13.5t-57.5 -39.5t-38 -65t-14 -90t14.5 -91t39.5 -67.5
t59 -41.5t72 -14q51 0 87.5 17t65.5 40z" />
    <glyph glyph-name="d" unicode="d" horiz-adv-x="598" 
d="M461 0l-13 62h-3q-26 -29 -69 -51.5t-92 -22.5q-42 0 -83.5 14.5t-74.5 47.5t-53.5 85t-20.5 127q0 69 19 121t51 86t73 51t85 17q65 0 103 -19.5t57 -38.5v273h72v-752h-51zM438 404q-32 34 -67.5 50.5t-79.5 16.5q-31 0 -60.5 -12t-53 -37.5t-37.5 -65t-14 -95.5
q0 -55 14.5 -94.5t38 -65t53 -37.5t59.5 -12q48 0 85 22t63 56z" />
    <glyph glyph-name="e" unicode="e" horiz-adv-x="586" 
d="M513 62q-38 -33 -89 -54.5t-128 -21.5q-48 0 -92 16.5t-78 50t-54 85t-20 120.5q0 66 17.5 118t49 87t76 53.5t97.5 18.5q58 0 101.5 -21.5t72 -56.5t43 -80.5t14.5 -93.5q0 -31 -3 -55h-392q10 -94 57 -136.5t123 -42.5q57 0 98 18.5t69 42.5zM457 286q-2 41 -14 75.5
t-32.5 59t-50 38.5t-65.5 14q-75 0 -121 -48t-49 -139h332z" />
    <glyph glyph-name="f" unicode="f" horiz-adv-x="341" 
d="M115 623q0 76 41.5 109t106.5 33q24 0 44 -2.5t34 -7.5l-13 -59q-13 4 -26.5 5.5t-26.5 1.5q-86 0 -86 -78v-101h134v-61h-134v-463h-72v463h-79v61h79z" />
    <glyph glyph-name="g" unicode="g" horiz-adv-x="609" 
d="M451 78q-39 -38 -77 -51.5t-88 -13.5q-45 0 -87.5 16.5t-75.5 49t-52.5 81t-19.5 113.5q0 67 22.5 116.5t57.5 82t78.5 48.5t84.5 16q59 0 95.5 -15.5t64.5 -39.5h3l22 43h42v-506q0 -59 -17 -102t-47 -70.5t-72.5 -40.5t-93.5 -13q-63 0 -113 18.5t-83 44.5l32 55
q68 -52 162 -52q33 0 62.5 7.5t52 24t35.5 43t13 63.5zM450 409q-21 24 -53.5 42.5t-90.5 18.5q-33 0 -65 -12t-57 -36.5t-40.5 -61t-15.5 -85.5q0 -50 13.5 -86.5t37 -61.5t55 -37t68.5 -12q90 0 148 75v256z" />
    <glyph glyph-name="h" unicode="h" horiz-adv-x="594" 
d="M156 450q39 46 80 66.5t94 20.5q35 0 67.5 -10.5t57 -32t39 -54t14.5 -76.5v-363h-72v346q0 37 -10.5 61t-28.5 38t-40.5 20t-46.5 6q-41 0 -79 -23t-73 -79v-370h-72v752h71z" />
    <glyph glyph-name="i" unicode="i" horiz-adv-x="249" 
d="M124 709q20 0 35.5 -12t15.5 -38t-15.5 -38t-35.5 -12q-19 0 -34.5 12t-15.5 38t15.5 38t34.5 12zM90 0v524h70v-524h-70z" />
    <glyph glyph-name="j" unicode="j" horiz-adv-x="257" 
d="M132 709q19 0 35 -12t16 -38t-16 -38t-35 -12q-20 0 -35 12t-15 38t15 38t35 12zM168 -64q0 -38 -13 -65t-35 -44.5t-51.5 -25.5t-62.5 -8q-45 0 -74 11l13 60q2 -1 17 -4.5t34 -3.5q49 0 75 22t26 79v567h72z" />
    <glyph glyph-name="k" unicode="k" horiz-adv-x="527" 
d="M230 249l-71 -80v-169h-72v752h72v-491l221 263h95l-198 -222l237 -302h-95z" />
    <glyph glyph-name="l" unicode="l" horiz-adv-x="246" 
d="M87 0v752h72v-752h-72z" />
    <glyph glyph-name="m" unicode="m" horiz-adv-x="889" 
d="M157 446q31 43 66.5 66t91.5 23q54 0 90 -22.5t58 -74.5q41 56 84 77t91 21q78 0 122 -45t44 -136v-355h-72v352q0 62 -26 91t-75 29q-47 0 -82.5 -26t-66.5 -76v-370h-73v355q0 34 -9 56.5t-23.5 36t-32.5 19t-37 5.5q-49 0 -87 -29.5t-61 -72.5v-370h-73v524h56l12 -76
z" />
    <glyph glyph-name="n" unicode="n" horiz-adv-x="594" 
d="M151 442q17 20 35.5 37t40.5 29.5t49 19.5t60 7q81 0 126.5 -43t45.5 -129v-364h-72v344q0 37 -7.5 61.5t-22 39t-34.5 20.5t-44 6q-53 0 -95 -24.5t-77 -78.5v-367h-70v524h51l11 -81z" />
    <glyph glyph-name="o" unicode="o" horiz-adv-x="611" 
d="M305 537q49 0 94.5 -16t80.5 -49t56 -85t21 -124t-21 -124t-56 -85t-80.5 -49t-94.5 -16t-94.5 16t-80.5 49t-56 85t-21 124t21 124t56 85t80.5 49t94.5 16zM305 473q-81 0 -130 -55.5t-49 -155.5t49 -155.5t130 -55.5q82 0 130.5 56t48.5 155t-48.5 155t-130.5 56z" />
    <glyph glyph-name="p" unicode="p" horiz-adv-x="591" 
d="M155 444q32 44 71.5 67.5t97.5 23.5q44 0 82.5 -15.5t67.5 -48t46 -81.5t17 -116q0 -66 -20 -119t-53 -90.5t-76 -57.5t-89 -20q-48 0 -80 9.5t-61 28.5v-231h-72v730h51l15 -80h3zM158 92q28 -23 56 -32.5t73 -9.5q31 0 63 14t57 42t41 69t16 95t-13 92t-34 62.5
t-48 35.5t-56 11q-50 0 -86.5 -27.5t-68.5 -81.5v-270z" />
    <glyph glyph-name="q" unicode="q" horiz-adv-x="601" 
d="M442 32q-25 -18 -61.5 -32t-88.5 -14q-43 0 -86 17t-77 51t-55 85.5t-21 121.5q0 71 22 123t57.5 85.5t79.5 50t89 16.5t81.5 -14.5t66.5 -40.5h3l24 43h39v-730h-72zM443 410q-26 26 -59 43t-77 17q-36 0 -68 -12.5t-57 -38.5t-39.5 -66t-14.5 -94q0 -58 17.5 -98
t43.5 -64.5t56 -35t56 -10.5q51 0 84.5 17t56.5 36z" />
    <glyph glyph-name="r" unicode="r" horiz-adv-x="359" 
d="M158 447q18 47 52 68.5t77 21.5q13 0 27.5 -2.5t25.5 -9.5l-12 -66q-11 3 -25 5.5t-29 2.5q-39 0 -68.5 -26.5t-49.5 -85.5v-355h-70v524h54l14 -77h4z" />
    <glyph glyph-name="s" unicode="s" horiz-adv-x="472" 
d="M76 105q29 -26 69 -40t77 -14q66 0 97.5 26.5t31.5 63.5q0 22 -10.5 36t-29.5 24.5t-45 18.5t-56 19q-35 12 -62.5 25t-47 29.5t-30 40t-10.5 56.5q0 34 14 61.5t39 46t59 28.5t73 10q53 0 98.5 -15.5t75.5 -38.5l-31 -53q-30 19 -65.5 32t-76.5 13q-53 0 -84 -23
t-31 -59q0 -22 10 -37t27 -25.5t39.5 -18.5t46.5 -15q31 -10 62 -21t55.5 -27.5t39.5 -41.5t15 -62q0 -69 -51.5 -113t-148.5 -44q-47 0 -94.5 15.5t-80.5 42.5z" />
    <glyph glyph-name="t" unicode="t" horiz-adv-x="367" 
d="M320 523v-61h-129v-359q0 -29 13 -40.5t30 -11.5t34.5 5t35.5 13l21 -55q-20 -11 -44.5 -18.5t-52.5 -7.5q-52 0 -80.5 25t-28.5 79v371h-90v61h90v82l37 52h36v-134z" />
    <glyph glyph-name="u" unicode="u" horiz-adv-x="589" 
d="M502 -1h-54l-16 80q-34 -42 -76 -67t-105 -25q-34 0 -64 10t-52.5 32.5t-35.5 58t-13 86.5v349h72v-333q0 -39 8 -65.5t22.5 -42.5t33.5 -23t40 -7q28 0 52.5 8.5t45 22t38 31.5t33.5 36v374h72z" />
    <glyph glyph-name="v" unicode="v" horiz-adv-x="519" 
d="M292 0h-73l-202 524h75l166 -448l169 448h76z" />
    <glyph glyph-name="w" unicode="w" horiz-adv-x="771" 
d="M572 0h-55l-139 410l-143 -410h-55l-164 524h75l122 -426l143 426h52l138 -431l139 431h70z" />
    <glyph glyph-name="x" unicode="x" horiz-adv-x="482" 
d="M282 271l192 -270v-2h-87l-146 219l-149 -219h-85v2l193 272l-180 248v3h87l133 -200l133 200h86v-2z" />
    <glyph glyph-name="y" unicode="y" horiz-adv-x="555" 
d="M320 -33q-30 -83 -76 -129t-111 -46q-28 0 -46 3.5t-32 8.5l13 56q2 -1 18.5 -5t37.5 -4q36 0 67.5 27.5t49.5 75.5l11 30l-223 540h76l182 -466l165 466h74z" />
    <glyph glyph-name="z" unicode="z" horiz-adv-x="471" 
d="M122 64h311v-63h-393v55l295 404h-285v64h373v-60z" />
    <glyph glyph-name="braceleft" unicode="{" horiz-adv-x="391" 
d="M336 737q-45 -5 -72 -36t-27 -84v-147q0 -24 -9 -43.5t-21.5 -34t-27.5 -23.5t-27 -11v-4q12 -2 27 -12t27.5 -25t21.5 -34.5t9 -41.5v-148q0 -51 27 -83.5t72 -37.5v-44q-41 0 -72.5 12t-54 34t-34 53t-11.5 68v125q0 53 -26 79t-66 31v50q37 6 64.5 32.5t27.5 76.5v125
q0 37 12 68t34.5 53t54 34.5t71.5 12.5v-45z" />
    <glyph glyph-name="bar" unicode="|" horiz-adv-x="227" 
d="M88 -75v908h52v-908h-52z" />
    <glyph glyph-name="braceright" unicode="}" horiz-adv-x="390" 
d="M55 782q40 0 71.5 -12.5t54 -34.5t34.5 -53t12 -68v-125q0 -51 27 -77t64 -32v-50q-40 -5 -66 -31t-26 -79v-125q0 -37 -11.5 -68t-34 -53t-54.5 -34t-72 -12v44q45 5 72 37.5t27 83.5v148q0 22 9 41.5t21.5 34.5t27.5 25t27 12v4q-12 2 -27 11t-27.5 23.5t-21.5 34
t-9 43.5v147q0 53 -27 84t-72 36z" />
    <glyph glyph-name="asciitilde" unicode="~" horiz-adv-x="634" 
d="M546 382q-17 -63 -53.5 -89.5t-78.5 -26.5q-27 0 -55.5 6.5t-57 14t-56.5 14t-54 6.5t-40.5 -13t-24.5 -32h-59q15 56 48 85.5t75 29.5q26 0 55 -6.5t58 -14.5t56.5 -14.5t50.5 -6.5q26 0 43 14t25 32z" />
    <glyph glyph-name="uni00A0" unicode="&#xa0;" horiz-adv-x="295" 
 />
    <glyph glyph-name="exclamdown" unicode="&#xa1;" horiz-adv-x="294" 
d="M147 525q26 0 42.5 -15.5t16.5 -45.5q0 -29 -16.5 -45t-42.5 -16t-42.5 16t-16.5 45q0 30 16.5 45.5t42.5 15.5zM95 -189l19 501h63l19 -501h-101z" />
    <glyph glyph-name="cent" unicode="&#xa2;" horiz-adv-x="537" 
d="M501 152q-24 -23 -65 -44.5t-98 -26.5l2 -95h-63l2 95q-48 4 -89.5 24.5t-72 55t-48 84t-17.5 112.5q0 60 17 107.5t46.5 81.5t69 54t84.5 26l-1 106h63l-2 -104q51 -4 91.5 -20.5t70.5 -42.5l-37 -51q-30 23 -62 37t-83 14q-39 0 -72.5 -13.5t-57.5 -39.5t-38 -65
t-14 -90t14.5 -91t39.5 -67.5t59 -41.5t72 -14q51 0 87.5 17t65.5 40z" />
    <glyph glyph-name="sterling" unicode="&#xa3;" horiz-adv-x="655" 
d="M253 184q0 -52 -15 -78.5t-41 -45.5q19 5 34.5 7.5t34.5 2.5q23 0 41.5 -2t35.5 -5t35 -5t41 -2t49.5 2.5t44.5 6.5l15 -67q-18 -5 -48.5 -8t-67.5 -3q-27 0 -46.5 2t-37 4l-35 4t-39.5 2q-47 0 -74.5 -3t-50.5 -9l-25 64q37 17 54.5 48.5t17.5 74.5v155h-65v58h65v146
q0 46 14 80t38.5 56t57 32.5t68.5 10.5q57 0 103 -14t86 -44l-39 -60q-36 25 -68 37t-74 12q-53 0 -79.5 -29t-26.5 -92v-135h217v-58h-217z" />
    <glyph glyph-name="currency" unicode="&#xa4;" horiz-adv-x="623" 
d="M494 472q20 -27 31.5 -61t11.5 -76q0 -83 -42 -137l75 -74l-43 -45l-77 76q-56 -38 -138 -38q-81 0 -137 38l-76 -76l-45 44l75 74q-21 27 -32.5 62t-11.5 77q0 43 11.5 78t32.5 61l-74 75l44 45l76 -77q58 38 137 38q40 0 74.5 -10t62.5 -29l77 77l44 -43zM311 184
q30 0 56 10t46 29t31.5 47.5t11.5 64.5q0 37 -11.5 65t-31.5 47t-46 29t-56 10t-56.5 -10t-46.5 -29t-31.5 -47t-11.5 -65q0 -36 11.5 -64.5t31.5 -47.5t46.5 -29t56.5 -10z" />
    <glyph glyph-name="yen" unicode="&#xa5;" horiz-adv-x="651" 
d="M564 359v-61h-199l-1 -1v-66h199v-61h-199v-171h-74v171h-200v61h200v67l-1 1h-200v61h162l-208 340h93l192 -330l195 330h84l-206 -340z" />
    <glyph glyph-name="brokenbar" unicode="&#xa6;" horiz-adv-x="225" 
d="M87 399v380h52v-380h-52zM87 -17v372h52v-372h-52z" />
    <glyph glyph-name="section" unicode="&#xa7;" horiz-adv-x="496" 
d="M97 71q28 -16 65 -23t72 -7q58 0 86.5 21t28.5 59q0 26 -15 41t-39 24t-54 15t-60 15q-21 7 -40 17.5t-33.5 25.5t-22.5 36t-8 50q0 44 25.5 76t73.5 45q-42 14 -69 44.5t-27 71.5q0 63 46.5 96.5t128.5 33.5q43 0 80.5 -8.5t61.5 -19.5l-19 -50q-25 10 -57.5 15t-62.5 5
q-57 0 -84.5 -21t-27.5 -53q0 -24 11.5 -39t30.5 -25t43.5 -16.5t51.5 -12.5q27 -7 52 -16t44.5 -23.5t31.5 -36.5t12 -55q0 -85 -103 -123q50 -15 75 -41.5t25 -70.5q0 -60 -47.5 -98t-135.5 -38q-48 0 -88.5 9t-73.5 26zM250 434q-49 0 -77.5 -23.5t-28.5 -63.5
q0 -42 28.5 -64t77.5 -22t78 22t29 64q0 40 -29 63.5t-78 23.5z" />
    <glyph glyph-name="dieresis" unicode="&#xa8;" horiz-adv-x="310" 
d="M72 707q21 0 34 -12t13 -35q0 -24 -13 -36t-34 -12q-20 0 -33 12t-13 36q0 23 13 35t33 12zM239 707q20 0 32.5 -12t12.5 -35q0 -24 -12.5 -36t-32.5 -12q-21 0 -34 12t-13 36q0 23 13 35t34 12z" />
    <glyph glyph-name="copyright" unicode="&#xa9;" horiz-adv-x="828" 
d="M414 714q72 0 137.5 -25t115 -72.5t79 -114.5t29.5 -151t-29.5 -151.5t-79 -114.5t-114.5 -72.5t-137 -25.5t-138 25.5t-115.5 72.5t-79 114.5t-29.5 151.5t29.5 151t79 114.5t115.5 72.5t138 25h-1zM414 662q-63 0 -118.5 -21.5t-97.5 -62t-66.5 -98t-24.5 -129.5
t24.5 -129.5t66.5 -98t97.5 -62t118.5 -21.5t118.5 21.5t97 62t66 98t24.5 129.5t-24.5 129.5t-66 97.5t-97 61.5t-118.5 21.5v1zM548 214q-19 -17 -50.5 -31.5t-82.5 -14.5q-36 0 -69 11t-58 34t-39.5 58.5t-14.5 84.5t15 84.5t39.5 58t56.5 33.5t66 11q43 0 74 -12t54 -32
l-25 -44q-23 16 -43.5 25.5t-58.5 9.5q-54 0 -89 -34t-35 -100q0 -33 10 -58t28 -42t41.5 -26t50.5 -9q36 0 60.5 10.5t44.5 27.5z" />
    <glyph glyph-name="ordfeminine" unicode="&#xaa;" horiz-adv-x="398" 
d="M80 678q16 11 44 21t66 10q116 0 116 -108v-148q0 -14 5.5 -19t16.5 -5h9l-4 -37q-2 -1 -9 -2.5t-18 -1.5q-38 0 -48 29q-36 -30 -95 -30q-41 0 -70 25t-29 71q0 43 30.5 66.5t78.5 23.5q20 0 40 -1t43 -4v25q0 37 -18.5 53.5t-50.5 16.5q-24 0 -45.5 -5.5t-41.5 -15.5z
M252 524q-14 3 -31.5 4t-39.5 1q-31 0 -49 -12t-18 -36q0 -23 15.5 -36t40.5 -13q31 0 51 10t32 21z" />
    <glyph glyph-name="guillemotleft" unicode="&#xab;" horiz-adv-x="460" 
d="M104 255l119 -143l-44 -38l-150 180l148 181l47 -37zM274 255l119 -143l-44 -38l-150 180l148 181l46 -37z" />
    <glyph glyph-name="logicalnot" unicode="&#xac;" horiz-adv-x="673" 
d="M519 157v178h-431v60h497v-238h-66z" />
    <glyph glyph-name="uni00AD" unicode="&#xad;" horiz-adv-x="454" 
d="M86 261v63h282v-63h-282z" />
    <glyph glyph-name="registered" unicode="&#xae;" horiz-adv-x="828" 
d="M414 714q72 0 137.5 -25t115 -72.5t79 -114.5t29.5 -151t-29.5 -151.5t-79 -114.5t-114.5 -72.5t-137 -25.5t-138 25.5t-115.5 72.5t-79 114.5t-29.5 151.5t29.5 151t79 114.5t115.5 72.5t138 25h-1zM414 662q-63 0 -118.5 -21.5t-97.5 -62t-66.5 -98t-24.5 -129.5
t24.5 -129.5t66.5 -98t97.5 -62t118.5 -21.5t118.5 21.5t97 62t66 98t24.5 129.5t-24.5 129.5t-66 97.5t-97 61.5t-118.5 21.5v1zM418 536q36 0 60 -8.5t38 -23t20 -32.5t6 -37q0 -38 -19.5 -62t-45.5 -37l84 -158h-64l-72 142h-77v-142h-52v359zM349 367h66q32 0 51 18
t19 44t-15.5 41.5t-54.5 15.5h-67z" />
    <glyph glyph-name="macron" unicode="&#xaf;" horiz-adv-x="310" 
d="M44 652v48h221v-48h-221z" />
    <glyph glyph-name="degree" unicode="&#xb0;" horiz-adv-x="371" 
d="M185 711q25 0 49.5 -7.5t43 -23.5t30 -39.5t11.5 -56.5t-11.5 -56.5t-30 -38.5t-43 -22.5t-49.5 -7.5t-49 7.5t-42.5 22.5t-30 38.5t-11.5 56.5t11.5 56.5t30 39.5t42.5 23.5t49 7.5zM184 652q-29 0 -48 -16.5t-19 -51.5t19 -51t48 -16q31 0 51 16t20 51t-19.5 51.5
t-50.5 16.5h-1z" />
    <glyph glyph-name="plusminus" unicode="&#xb1;" horiz-adv-x="613" 
d="M555 471v-59h-218v-228h-60v228h-218v59h218v228h60v-228h218zM60 19v60h495v-60h-495z" />
    <glyph glyph-name="acute" unicode="&#xb4;" horiz-adv-x="310" 
d="M69 590l74 115h100l-115 -115h-59z" />
    <glyph glyph-name="mu" unicode="&#xb5;" horiz-adv-x="607" 
d="M519 0h-54l-15 78q-32 -42 -67 -66.5t-90 -24.5q-42 0 -78 10.5t-56 36.5v-226h-72v716h72v-343q0 -33 11.5 -57t30 -39.5t43 -23.5t51.5 -8t49.5 8.5t41.5 22.5t34.5 32.5t28.5 38.5v369h72z" />
    <glyph glyph-name="paragraph" unicode="&#xb6;" horiz-adv-x="510" 
d="M361 0v643h-59v-643h-63v374q-89 9 -128 54t-39 113q0 35 10 64t32 50t56.5 33t83.5 12h170v-700h-63z" />
    <glyph glyph-name="periodcentered" unicode="&#xb7;" horiz-adv-x="288" 
d="M144 369q24 0 42.5 -15t18.5 -47q0 -34 -18.5 -49t-42.5 -15q-23 0 -42 15t-19 49q0 32 19 47t42 15z" />
    <glyph glyph-name="cedilla" unicode="&#xb8;" horiz-adv-x="310" 
d="M143 -41q36 3 59 -18.5t23 -52.5q0 -22 -9 -38t-24.5 -26.5t-36 -17t-44.5 -8.5l-15 40q36 5 53.5 16.5t17.5 33.5q0 13 -8.5 21t-21.5 8q-11 0 -19 -4l-31 27l40 68h45z" />
    <glyph glyph-name="ordmasculine" unicode="&#xba;" horiz-adv-x="402" 
d="M202 710q28 0 55 -9.5t48.5 -29t34.5 -50t13 -72.5t-13 -72.5t-34.5 -50t-48.5 -29t-55 -9.5q-29 0 -56 9.5t-48 29t-33.5 50t-12.5 72.5t12.5 72.5t33.5 50t48 29t56 9.5zM202 662q-44 0 -71 -30t-27 -83q0 -54 27 -83.5t71 -29.5q43 0 70.5 29.5t27.5 83.5
q0 53 -27.5 83t-70.5 30z" />
    <glyph glyph-name="guillemotright" unicode="&#xbb;" horiz-adv-x="460" 
d="M112 75l-45 38l119 143l-119 143l47 37l148 -181zM283 75l-45 38l119 143l-119 143l47 37l147 -181z" />
    <glyph glyph-name="onequarter" unicode="&#xbc;" horiz-adv-x="1019" 
d="M341 -122l284 870h51l-283 -870h-52zM328 297h-234v57h85v264l-79 -36l-25 50l125 62h44v-340h85zM973 102h-60v-103h-63v103h-189v53l200 242h52v-241h60v-54zM849 301l-118 -145h118v145z" />
    <glyph glyph-name="onehalf" unicode="&#xbd;" horiz-adv-x="1019" 
d="M341 -122l284 870h51l-283 -870h-52zM328 297h-234v57h85v264l-79 -36l-25 50l125 62h44v-340h85zM671 353q26 20 60.5 35t79.5 15q65 0 103 -33.5t38 -83.5q0 -47 -30.5 -91t-84.5 -86l-69 -54h195v-58h-283v52l115 93q41 33 63.5 66t22.5 70q0 31 -21.5 48t-55.5 17
q-31 0 -57.5 -12t-43.5 -26z" />
    <glyph glyph-name="threequarters" unicode="&#xbe;" horiz-adv-x="1019" 
d="M341 -122l284 870h51l-283 -870h-52zM59 647q26 24 59 39.5t78 15.5q71 0 106 -30t35 -70q0 -30 -20 -55.5t-55 -35.5q41 -7 66 -31.5t25 -67.5q0 -28 -12 -51.5t-33.5 -40.5t-51 -26.5t-64.5 -9.5q-45 0 -82 13.5t-64 34.5l33 51q17 -14 45 -26.5t64 -12.5q51 0 73 20.5
t22 47.5q0 33 -22 49t-73 16h-39v55h31q39 0 63.5 14t24.5 43q0 23 -17 38t-57 15q-31 0 -55.5 -11.5t-45.5 -29.5zM973 103h-60v-103h-63v103h-189v53l200 242h52v-241h60v-54zM849 302l-118 -145h118v145z" />
    <glyph glyph-name="questiondown" unicode="&#xbf;" horiz-adv-x="563" 
d="M284 426q-26 0 -42.5 16t-16.5 45t16.5 44.5t42.5 15.5t42.5 -15.5t16.5 -44.5t-16.5 -45t-42.5 -16zM472 -110q-32 -27 -86 -46.5t-120 -19.5q-49 0 -87.5 13t-64.5 35t-40 51.5t-14 62.5q0 39 14.5 68.5t36 54t46.5 46t47 45.5t36.5 52.5t14.5 65.5h65
q0 -43 -13.5 -74.5t-34 -57t-44.5 -46.5t-44.5 -42.5t-34 -46t-13.5 -55.5q0 -52 36 -80t97 -28q53 0 94.5 13.5t74.5 38.5z" />
    <glyph glyph-name="Agrave" unicode="&#xc0;" horiz-adv-x="691" 
d="M330 766l-118 115h101l75 -115h-58zM117 0h-78l260 700h93l262 -700h-83l-64 178h-325zM206 243h278l-139 385z" />
    <glyph glyph-name="Aacute" unicode="&#xc1;" horiz-adv-x="691" 
d="M308 766l74 115h100l-115 -115h-59zM117 0h-78l260 700h93l262 -700h-83l-64 178h-325zM206 243h278l-139 385z" />
    <glyph glyph-name="Acircumflex" unicode="&#xc2;" horiz-adv-x="691" 
d="M211 777l113 111h42l107 -111h-73l-58 53l-55 -53h-76zM569 0l-64 178h-325l-64 -178h-78l260 700h93l262 -700h-84zM344 628l-140 -385h278z" />
    <glyph glyph-name="Atilde" unicode="&#xc3;" horiz-adv-x="691" 
d="M483 861q-11 -36 -33 -56.5t-52 -20.5q-16 0 -29 5.5t-25 12.5t-24 12.5t-26 5.5q-22 0 -34 -11t-21 -29l-39 20q14 42 39.5 59t50.5 17q16 0 30 -5.5t26.5 -12.5t24.5 -12.5t24 -5.5q19 0 30.5 14t18.5 30zM115 0h-78l260 700h93l262 -700h-83l-64 178h-325zM204 243
h278l-139 385z" />
    <glyph glyph-name="Adieresis" unicode="&#xc4;" horiz-adv-x="691" 
d="M263 883q21 0 34 -12t13 -35q0 -24 -13 -36t-34 -12q-20 0 -33 12t-13 36q0 23 13 35t33 12zM430 883q20 0 32.5 -12t12.5 -35q0 -24 -12.5 -36t-32.5 -12q-21 0 -34 12t-13 36q0 23 13 35t34 12zM117 0h-78l260 700h93l262 -700h-83l-64 178h-325zM206 243h278l-139 385
z" />
    <glyph glyph-name="Aring" unicode="&#xc5;" horiz-adv-x="691" 
d="M348 912q29 0 52 -17.5t23 -53.5t-23 -53t-52 -17t-52 17t-23 53t23 53.5t52 17.5zM346 877q-16 0 -25.5 -10t-9.5 -26q0 -17 10 -26.5t26 -9.5t25.5 9.5t9.5 26.5t-9.5 27t-24.5 10zM115 0h-78l260 700h93l262 -700h-83l-64 178h-325zM204 243h278l-139 385z" />
    <glyph glyph-name="AE" unicode="&#xc6;" horiz-adv-x="880" 
d="M501 387h291v-66h-291v-254h327v-68h-401v147h-231l-71 -147h-87l348 700h442v-65h-327v-247zM427 625v-1l-199 -413h199v414z" />
    <glyph glyph-name="Ccedilla" unicode="&#xc7;" horiz-adv-x="659" 
d="M369 -44q36 3 59 -18.5t23 -52.5q0 -22 -9 -38t-24.5 -26.5t-36 -17t-44.5 -8.5l-15 40q36 5 53.5 16.5t17.5 33.5q0 13 -8.5 21t-21.5 8q-11 0 -19 -4l-31 27l30 50q-57 7 -107 31t-87.5 67.5t-59 108t-22.5 151.5q-1 96 25 165t70.5 113.5t104 65.5t125.5 21
q70 0 126 -16.5t95 -45.5l-38 -56q-80 52 -186 52q-49 0 -93.5 -17.5t-78.5 -53.5t-54 -92t-20 -134q0 -79 20 -135t54.5 -91.5t79.5 -51.5t95 -15q61 1 108.5 18t89.5 51l40 -54q-45 -38 -105 -60t-135 -22h-4z" />
    <glyph glyph-name="Egrave" unicode="&#xc8;" horiz-adv-x="574" 
d="M272 766l-118 115h101l75 -115h-58zM161 391h322v-66h-322v-257h363v-68h-437v700h437v-65h-363v-244z" />
    <glyph glyph-name="Eacute" unicode="&#xc9;" horiz-adv-x="574" 
d="M251 766l74 115h100l-115 -115h-59zM161 391h322v-66h-322v-257h363v-68h-437v700h437v-65h-363v-244z" />
    <glyph glyph-name="Ecircumflex" unicode="&#xca;" horiz-adv-x="574" 
d="M154 777l113 111h42l107 -111h-73l-58 53l-55 -53h-76zM160 392h322v-66h-322v-257h363v-68h-437v700h437v-65h-363v-244z" />
    <glyph glyph-name="Edieresis" unicode="&#xcb;" horiz-adv-x="574" 
d="M206 883q21 0 34 -12t13 -35q0 -24 -13 -36t-34 -12q-20 0 -33 12t-13 36q0 23 13 35t33 12zM373 883q20 0 32.5 -12t12.5 -35q0 -24 -12.5 -36t-32.5 -12q-21 0 -34 12t-13 36q0 23 13 35t34 12zM161 391h322v-66h-322v-257h363v-68h-437v700h437v-65h-363v-244z" />
    <glyph glyph-name="Igrave" unicode="&#xcc;" horiz-adv-x="267" 
d="M115 766l-118 115h101l75 -115h-58zM97 700h74v-700h-74v700z" />
    <glyph glyph-name="Iacute" unicode="&#xcd;" horiz-adv-x="267" 
d="M94 766l74 115h100l-115 -115h-59zM97 700h74v-700h-74v700z" />
    <glyph glyph-name="Icircumflex" unicode="&#xce;" horiz-adv-x="267" 
d="M186 777l-58 53l-55 -53h-76l113 111h42l107 -111h-73zM171 700v-700h-74v700h74z" />
    <glyph glyph-name="Idieresis" unicode="&#xcf;" horiz-adv-x="267" 
d="M48 883q21 0 34 -12t13 -35q0 -24 -13 -36t-34 -12q-20 0 -33 12t-13 36q0 23 13 35t33 12zM215 883q20 0 32.5 -12t12.5 -35q0 -24 -12.5 -36t-32.5 -12q-21 0 -34 12t-13 36q0 23 13 35t34 12zM96 700h74v-700h-74v700z" />
    <glyph glyph-name="Eth" unicode="&#xd0;" horiz-adv-x="783" 
d="M378 700q69 0 130.5 -19t107.5 -60.5t73 -106.5t27 -158q0 -92 -27 -159.5t-73 -111t-107.5 -64.5t-130.5 -21h-197v330h-95v61h95v309h197zM387 70q119 0 185.5 71t66.5 216t-66.5 211.5t-185.5 66.5h-132v-244h117v-61h-117v-261z" />
    <glyph glyph-name="Ntilde" unicode="&#xd1;" horiz-adv-x="729" 
d="M493 862q-11 -36 -33 -56.5t-52 -20.5q-16 0 -29 5.5t-25 12.5t-24 12.5t-26 5.5q-22 0 -34 -11t-21 -29l-39 20q14 42 39.5 59t50.5 17q16 0 30 -5.5t26.5 -12.5t24.5 -12.5t24 -5.5q19 0 30.5 14t19.5 30zM160 570v-570h-74v700h65l416 -570v570h74v-700h-64z" />
    <glyph glyph-name="Ograve" unicode="&#xd2;" 
d="M372 766l-118 115h101l75 -115h-58zM400 711q61 0 120.5 -20.5t106 -64.5t75.5 -112t29 -162q0 -95 -29 -164t-75.5 -113.5t-106 -66t-120.5 -21.5t-120.5 21.5t-106.5 66t-76 113.5t-29 164t29 163t76 112t106.5 64.5t120.5 20.5v-1zM401 645q-52 0 -98.5 -18t-81.5 -54
t-55.5 -91t-20.5 -129q0 -73 20 -129t54.5 -93.5t80.5 -57t97 -19.5q52 0 98.5 18.5t82 56t56.5 93t21 130.5q0 74 -20.5 129t-56 91t-81.5 54t-97 18z" />
    <glyph glyph-name="Oacute" unicode="&#xd3;" 
d="M350 766l74 115h100l-115 -115h-59zM399 711q61 0 120.5 -20.5t106 -64.5t75.5 -112t29 -162q0 -95 -29 -164t-75.5 -113.5t-106 -66t-120.5 -21.5t-120.5 21.5t-106.5 66t-76 113.5t-29 164t29 163t76 112t106.5 64.5t120.5 20.5v-1zM400 645q-52 0 -98.5 -18t-81.5 -54
t-55.5 -91t-20.5 -129q0 -73 20 -129t54.5 -93.5t80.5 -57t97 -19.5q52 0 98.5 18.5t82 56t56.5 93t21 130.5q0 74 -20.5 129t-56 91t-81.5 54t-97 18z" />
    <glyph glyph-name="Ocircumflex" unicode="&#xd4;" 
d="M253 777l113 111h42l107 -111h-73l-58 53l-55 -53h-76zM399 711q61 0 120.5 -20.5t106 -64.5t75.5 -112t29 -162q0 -95 -29 -164t-75.5 -113.5t-106 -66t-120.5 -21.5t-120.5 21.5t-106.5 66t-76 113.5t-29 164t29 163t76 112t106.5 64.5t120.5 20.5v-1zM396 54
q52 0 98.5 18.5t82 56t56.5 93t21 130.5q0 74 -20.5 129t-56 91t-81.5 54t-97 18q-52 0 -98.5 -18t-81.5 -54t-55.5 -91t-20.5 -129q0 -73 20 -129t54.5 -93.5t80.5 -57t97 -19.5z" />
    <glyph glyph-name="Otilde" unicode="&#xd5;" 
d="M525 861q-11 -36 -33 -56.5t-52 -20.5q-16 0 -29 5.5t-25 12.5t-24 12.5t-26 5.5q-22 0 -34 -11t-21 -29l-39 20q14 42 39.5 59t49.5 17q16 0 30 -5.5t26.5 -12.5t24.5 -12.5t24 -5.5q19 0 30.5 14t19.5 30zM398 711q61 0 120.5 -20.5t106 -64.5t75.5 -112t29 -162
q0 -95 -29 -164t-75.5 -113.5t-106 -66t-120.5 -21.5t-120.5 21.5t-106.5 66t-76 113.5t-29 164t29 163t76 112t106.5 64.5t120.5 20.5v-1zM399 645q-52 0 -98.5 -18t-81.5 -54t-55.5 -91t-20.5 -129q0 -73 20 -129t54.5 -93.5t80.5 -57t97 -19.5q52 0 98.5 18.5t82 56
t56.5 93t21 130.5q0 74 -20.5 129t-56 91t-81.5 54t-97 18z" />
    <glyph glyph-name="Odieresis" unicode="&#xd6;" 
d="M305 883q21 0 34 -12t13 -35q0 -24 -13 -36t-34 -12q-20 0 -33 12t-13 36q0 23 13 35t33 12zM472 883q20 0 32.5 -12t12.5 -35q0 -24 -12.5 -36t-32.5 -12q-21 0 -34 12t-13 36q0 23 13 35t34 12zM399 711q61 0 120.5 -20.5t106 -64.5t75.5 -112t29 -162q0 -95 -29 -164
t-75.5 -113.5t-106 -66t-120.5 -21.5t-120.5 21.5t-106.5 66t-76 113.5t-29 164t29 163t76 112t106.5 64.5t120.5 20.5v-1zM400 645q-52 0 -98.5 -18t-81.5 -54t-55.5 -91t-20.5 -129q0 -73 20 -129t54.5 -93.5t80.5 -57t97 -19.5q52 0 98.5 18.5t82 56t56.5 93t21 130.5
q0 74 -20.5 129t-56 91t-81.5 54t-97 18z" />
    <glyph glyph-name="multiply" unicode="&#xd7;" horiz-adv-x="674" 
d="M544 2l-205 214l-205 -213l-45 45l205 215l-206 216l46 44l204 -214l204 214l45 -47l-204 -214l204 -214z" />
    <glyph glyph-name="Oslash" unicode="&#xd8;" 
d="M598 650q59 -42 96 -115.5t37 -182.5q0 -95 -29 -164t-75.5 -113.5t-106 -66t-120.5 -21.5q-41 0 -81 9t-77 29l-67 -119l-51 29l69 121q-56 45 -91 117.5t-35 178.5q0 95 29 163t76 112t106.5 64.5t120.5 20.5q38 0 75 -7.5t72 -24.5l64 112l51 -28zM514 619
q-26 13 -54.5 19t-58.5 6q-52 0 -98.5 -18t-81.5 -54t-55.5 -91t-20.5 -129q0 -78 23 -136t62 -96zM278 83q54 -30 120 -30q52 0 98.5 18.5t82 56t56.5 93t21 130.5q0 83 -25.5 141.5t-67.5 94.5z" />
    <glyph glyph-name="Ugrave" unicode="&#xd9;" horiz-adv-x="698" 
d="M325 766l-118 115h101l75 -115h-58zM612 252q0 -72 -21.5 -122t-57.5 -82t-83.5 -46.5t-99.5 -14.5t-99.5 14.5t-84 46.5t-58 82t-21.5 122v448h74v-453q0 -89 49 -138.5t140 -49.5t140 49.5t49 138.5v453h74z" />
    <glyph glyph-name="Uacute" unicode="&#xda;" horiz-adv-x="698" 
d="M303 766l74 115h100l-115 -115h-59zM611 252q0 -72 -21.5 -122t-57.5 -82t-83.5 -46.5t-99.5 -14.5t-99.5 14.5t-84 46.5t-58 82t-21.5 122v448h74v-453q0 -89 49 -138.5t140 -49.5t140 49.5t49 138.5v453h74z" />
    <glyph glyph-name="Ucircumflex" unicode="&#xdb;" horiz-adv-x="698" 
d="M206 777l113 111h42l107 -111h-73l-58 53l-55 -53h-76zM611 252q0 -72 -21.5 -122t-57.5 -82t-83.5 -46.5t-99.5 -14.5t-99.5 14.5t-84 46.5t-58 82t-21.5 122v448h74v-453q0 -89 49 -138.5t140 -49.5t140 49.5t49 138.5v453h74z" />
    <glyph glyph-name="Udieresis" unicode="&#xdc;" horiz-adv-x="698" 
d="M258 883q21 0 34 -12t13 -35q0 -24 -13 -36t-34 -12q-20 0 -33 12t-13 36q0 23 13 35t33 12zM425 883q20 0 32.5 -12t12.5 -35q0 -24 -12.5 -36t-32.5 -12q-21 0 -34 12t-13 36q0 23 13 35t34 12zM611 252q0 -72 -21.5 -122t-57.5 -82t-83.5 -46.5t-99.5 -14.5
t-99.5 14.5t-84 46.5t-58 82t-21.5 122v448h74v-453q0 -89 49 -138.5t140 -49.5t140 49.5t49 138.5v453h74z" />
    <glyph glyph-name="Yacute" unicode="&#xdd;" horiz-adv-x="651" 
d="M279 766l74 115h100l-115 -115h-59zM277 0v280l-246 420h88l196 -351l195 351h84l-244 -420v-280h-73z" />
    <glyph glyph-name="Thorn" unicode="&#xde;" horiz-adv-x="552" 
d="M291 576q58 0 101.5 -15t72.5 -42t43.5 -64.5t14.5 -82.5t-14.5 -85t-43.5 -70t-72.5 -47t-100.5 -17h-130v-153h-75v700h75v-123zM161 219h120q78 0 120.5 40t42.5 114q0 73 -42 105t-120 32h-120z" />
    <glyph glyph-name="germandbls" unicode="&#xdf;" horiz-adv-x="543" 
d="M84 605q0 72 44.5 115t125.5 43q43 0 75.5 -12t54 -32.5t32.5 -48t11 -58.5q0 -32 -7.5 -56t-18.5 -42t-24.5 -32.5t-24.5 -27.5t-18.5 -26.5t-7.5 -29.5q0 -17 12 -32t30 -30t39.5 -31.5t39.5 -38.5t30 -50t12 -65q0 -40 -12.5 -70.5t-34.5 -51t-52.5 -31t-67.5 -10.5
t-65 6t-50 14l18 58q23 -8 46 -12t48 -4q24 0 42.5 8.5t31 22t18.5 31.5t6 36q0 29 -12 52t-30 42t-38.5 35.5t-38.5 34.5t-30 38t-12 46q0 30 15.5 52t34.5 43.5t34.5 47t15.5 63.5q0 48 -26 73t-72 25q-44 0 -71.5 -21.5t-27.5 -74.5v-604h-73z" />
    <glyph glyph-name="agrave" unicode="&#xe0;" horiz-adv-x="554" 
d="M257 591l-118 115h101l75 -115h-58zM81 466q38 31 85.5 50t110.5 19q102 0 148.5 -43.5t46.5 -141.5v-258q0 -18 7 -30.5t26 -12.5q5 0 10 0.5t6 0.5l-8 -47q-5 -5 -14.5 -6.5t-20.5 -1.5q-29 0 -46 13t-25 48q-31 -37 -72 -53t-95 -16q-41 0 -75 8.5t-59 27t-39 47.5
t-14 69q0 41 17 69.5t45.5 46t66 25.5t78.5 8q27 0 51.5 -1.5t43.5 -4t30.5 -4t12.5 -1.5v77q0 35 -9 58t-25.5 37t-40 19.5t-51.5 5.5q-51 0 -88.5 -14t-69.5 -40zM400 216q-21 4 -55 8.5t-77 4.5q-63 0 -102 -19.5t-39 -69.5q0 -27 10 -44.5t26.5 -28.5t38.5 -15.5
t45 -4.5q51 0 90.5 19t62.5 57v93z" />
    <glyph glyph-name="aacute" unicode="&#xe1;" horiz-adv-x="554" 
d="M236 591l74 115h100l-115 -115h-59zM81 466q38 31 85.5 50t110.5 19q102 0 148.5 -43.5t46.5 -141.5v-258q0 -18 7 -30.5t26 -12.5q5 0 10 0.5t6 0.5l-8 -47q-5 -5 -14.5 -6.5t-20.5 -1.5q-29 0 -46 13t-25 48q-31 -37 -72 -53t-95 -16q-41 0 -75 8.5t-59 27t-39 47.5
t-14 69q0 41 17 69.5t45.5 46t66 25.5t78.5 8q27 0 51.5 -1.5t43.5 -4t30.5 -4t12.5 -1.5v77q0 35 -9 58t-25.5 37t-40 19.5t-51.5 5.5q-51 0 -88.5 -14t-69.5 -40zM400 216q-21 4 -55 8.5t-77 4.5q-63 0 -102 -19.5t-39 -69.5q0 -27 10 -44.5t26.5 -28.5t38.5 -15.5
t45 -4.5q51 0 90.5 19t62.5 57v93z" />
    <glyph glyph-name="acircumflex" unicode="&#xe2;" horiz-adv-x="554" 
d="M139 601l113 111h42l107 -111h-73l-58 53l-55 -53h-76zM471 91q0 -18 7 -30.5t26 -12.5q5 0 10 0.5t6 0.5l-8 -47q-5 -5 -14.5 -6.5t-20.5 -1.5q-29 0 -46 13t-25 48q-31 -37 -72 -53t-95 -16q-41 0 -75 8.5t-59 27t-39 47.5t-14 69q0 41 17 69.5t45.5 46t66 25.5t78.5 8
q27 0 51.5 -1.5t43.5 -4t30.5 -4t12.5 -1.5v77q0 35 -9 58t-25.5 37t-40 19.5t-51.5 5.5q-51 0 -88.5 -14t-69.5 -40l-33 48q38 31 85.5 50t110.5 19q102 0 148.5 -43.5t46.5 -141.5v-260zM399 216q-21 4 -55 8.5t-77 4.5q-63 0 -102 -19.5t-39 -69.5q0 -27 10 -44.5
t26.5 -28.5t38.5 -15.5t45 -4.5q51 0 90.5 19t62.5 57v93z" />
    <glyph glyph-name="atilde" unicode="&#xe3;" horiz-adv-x="554" 
d="M411 686q-11 -36 -33 -56.5t-52 -20.5q-16 0 -29 5.5t-25 12.5t-24 12.5t-26 5.5q-22 0 -34 -11t-21 -29l-39 20q14 42 39.5 59t50.5 17q16 0 30 -5.5t26.5 -12.5t24.5 -12.5t24 -5.5q19 0 30.5 14t18.5 30zM80 466q38 31 85.5 50t110.5 19q102 0 148.5 -43.5
t46.5 -141.5v-258q0 -18 7 -30.5t26 -12.5q5 0 10 0.5t6 0.5l-8 -47q-5 -5 -14.5 -6.5t-20.5 -1.5q-29 0 -46 13t-25 48q-31 -37 -72 -53t-95 -16q-41 0 -75 8.5t-59 27t-39 47.5t-14 69q0 41 17 69.5t45.5 46t66 25.5t78.5 8q27 0 51.5 -1.5t43.5 -4t30.5 -4t12.5 -1.5v77
q0 35 -9 58t-25.5 37t-40 19.5t-51.5 5.5q-51 0 -88.5 -14t-69.5 -40zM399 216q-21 4 -55 8.5t-77 4.5q-63 0 -102 -19.5t-39 -69.5q0 -27 10 -44.5t26.5 -28.5t38.5 -15.5t45 -4.5q51 0 90.5 19t62.5 57v93z" />
    <glyph glyph-name="adieresis" unicode="&#xe4;" horiz-adv-x="554" 
d="M190 708q21 0 34 -12t13 -35q0 -24 -13 -36t-34 -12q-20 0 -33 12t-13 36q0 23 13 35t33 12zM357 708q20 0 32.5 -12t12.5 -35q0 -24 -12.5 -36t-32.5 -12q-21 0 -34 12t-13 36q0 23 13 35t34 12zM80 467q38 31 85.5 50t110.5 19q102 0 148.5 -43.5t46.5 -141.5v-258
q0 -18 7 -30.5t26 -12.5q5 0 10 0.5t6 0.5l-8 -47q-5 -5 -14.5 -6.5t-20.5 -1.5q-29 0 -46 13t-25 48q-31 -37 -72 -53t-95 -16q-41 0 -75 8.5t-59 27t-39 47.5t-14 69q0 41 17 69.5t45.5 46t66 25.5t78.5 8q27 0 51.5 -1.5t43.5 -4t30.5 -4t12.5 -1.5v77q0 35 -9 58
t-25.5 37t-40 19.5t-51.5 5.5q-51 0 -88.5 -14t-69.5 -40zM399 217q-21 4 -55 8.5t-77 4.5q-63 0 -102 -19.5t-39 -69.5q0 -27 10 -44.5t26.5 -28.5t38.5 -15.5t45 -4.5q51 0 90.5 19t62.5 57v93z" />
    <glyph glyph-name="aring" unicode="&#xe5;" horiz-adv-x="554" 
d="M276 736q29 0 52 -17.5t23 -53.5t-23 -53t-52 -17t-52 17t-23 53t23 53.5t52 17.5zM275 699q-16 0 -25.5 -10t-9.5 -26t10 -25.5t26 -9.5q15 0 24.5 10t9.5 27t-9.5 27t-24.5 10zM80 463q38 31 85.5 50t110.5 19q102 0 148.5 -43.5t46.5 -141.5v-258q0 -18 7 -30.5
t26 -12.5q5 0 10 0.5t6 0.5l-8 -47q-5 -5 -14.5 -6.5t-20.5 -1.5q-29 0 -46 13t-25 48q-31 -37 -72 -53t-95 -16q-41 0 -75 8.5t-59 27t-39 47.5t-14 69q0 41 17 69.5t45.5 46t66 25.5t78.5 8q27 0 51.5 -1.5t43.5 -4t30.5 -4t12.5 -1.5v77q0 35 -9 58t-25.5 37t-40 19.5
t-51.5 5.5q-51 0 -88.5 -14t-69.5 -40zM399 213q-21 4 -55 8.5t-77 4.5q-63 0 -102 -19.5t-39 -69.5q0 -27 10 -44.5t26.5 -28.5t38.5 -15.5t45 -4.5q51 0 90.5 19t62.5 57v93z" />
    <glyph glyph-name="ae" unicode="&#xe6;" horiz-adv-x="922" 
d="M89 472q37 27 82.5 46.5t113.5 19.5q70 0 109.5 -24.5t61.5 -78.5q32 52 82 77t110 25q44 0 82.5 -15t67 -45.5t45 -76.5t16.5 -109q0 -11 0.5 -25t-1.5 -28h-379q5 -92 50.5 -139.5t123.5 -47.5q51 0 93.5 18t70.5 44l28 -47q-30 -30 -79 -53.5t-118 -23.5
q-67 0 -118 26.5t-84 84.5q-32 -51 -86 -81t-125 -30q-38 0 -71 10t-57 30t-38 49t-14 68q0 46 19.5 77t51.5 49.5t73.5 26.5t85.5 8q22 0 43.5 -1.5t38.5 -4t27.5 -4t11.5 -1.5v47q0 68 -35.5 99t-95.5 31q-42 0 -81 -13.5t-74 -39.5zM791 298q-3 85 -39 131.5t-108 46.5
t-114 -46.5t-47 -131.5h308zM409 238q-21 4 -52.5 8.5t-71.5 4.5q-34 0 -63 -4.5t-50 -15.5t-32.5 -30t-11.5 -49q0 -29 10.5 -48t27 -30.5t36 -16.5t38.5 -5q33 0 63 10t53.5 27t38 38.5t15.5 45.5z" />
    <glyph glyph-name="ccedilla" unicode="&#xe7;" horiz-adv-x="536" 
d="M292 -41q36 3 59 -18.5t23 -52.5q0 -22 -9 -38t-24.5 -26.5t-36 -17t-44.5 -8.5l-15 40q36 5 53.5 16.5t17.5 33.5q0 13 -8.5 21t-21.5 8q-11 0 -19 -4l-31 27l30 50q-46 7 -84.5 28t-67 55.5t-44.5 82.5t-16 108q0 66 20.5 116.5t55 85t80.5 52.5t96 18q60 0 106 -17.5
t79 -46.5l-37 -51q-30 23 -62 37t-83 14q-39 0 -72.5 -13.5t-57.5 -39.5t-38 -65t-14 -90t14.5 -91t39.5 -67.5t59 -41.5t72 -14q51 0 87.5 17t65.5 40l37 -48q-14 -13 -33 -25.5t-43 -23t-54 -17t-64 -6.5z" />
    <glyph glyph-name="egrave" unicode="&#xe8;" horiz-adv-x="586" 
d="M269 590l-118 115h101l75 -115h-58zM514 62q-38 -33 -89 -54.5t-128 -21.5q-48 0 -92 16.5t-78 50t-54 85t-20 120.5q0 66 17.5 118t49 87t76 53.5t97.5 18.5q58 0 101.5 -21.5t72 -56.5t43 -80.5t14.5 -93.5q0 -31 -3 -55h-392q10 -94 57 -136.5t123 -42.5q57 0 98 18.5
t69 42.5zM458 286q-2 41 -14 75.5t-32.5 59t-50 38.5t-65.5 14q-75 0 -121 -48t-49 -139h332z" />
    <glyph glyph-name="eacute" unicode="&#xe9;" horiz-adv-x="586" 
d="M247 590l74 115h100l-115 -115h-59zM513 62q-38 -33 -89 -54.5t-128 -21.5q-48 0 -92 16.5t-78 50t-54 85t-20 120.5q0 66 17.5 118t49 87t76 53.5t97.5 18.5q58 0 101.5 -21.5t72 -56.5t43 -80.5t14.5 -93.5q0 -31 -3 -55h-392q10 -94 57 -136.5t123 -42.5q57 0 98 18.5
t69 42.5zM457 286q-2 41 -14 75.5t-32.5 59t-50 38.5t-65.5 14q-75 0 -121 -48t-49 -139h332z" />
    <glyph glyph-name="ecircumflex" unicode="&#xea;" horiz-adv-x="586" 
d="M150 600l113 111h42l107 -111h-73l-58 53l-55 -53h-76zM513 62q-38 -33 -89 -54.5t-128 -21.5q-48 0 -92 16.5t-78 50t-54 85t-20 120.5q0 66 17.5 118t49 87t76 53.5t97.5 18.5q58 0 101.5 -21.5t72 -56.5t43 -80.5t14.5 -93.5q0 -31 -3 -55h-392q10 -94 57 -136.5
t123 -42.5q57 0 98 18.5t69 42.5zM457 286q-2 41 -14 75.5t-32.5 59t-50 38.5t-65.5 14q-75 0 -121 -48t-49 -139h332z" />
    <glyph glyph-name="edieresis" unicode="&#xeb;" horiz-adv-x="586" 
d="M202 707q21 0 34 -12t13 -35q0 -24 -13 -36t-34 -12q-20 0 -33 12t-13 36q0 23 13 35t33 12zM369 707q20 0 32.5 -12t12.5 -35q0 -24 -12.5 -36t-32.5 -12q-21 0 -34 12t-13 36q0 23 13 35t34 12zM514 62q-38 -33 -89 -54.5t-128 -21.5q-48 0 -92 16.5t-78 50t-54 85
t-20 120.5q0 66 17.5 118t49 87t76 53.5t97.5 18.5q58 0 101.5 -21.5t72 -56.5t43 -80.5t14.5 -93.5q0 -31 -3 -55h-392q10 -94 57 -136.5t123 -42.5q57 0 98 18.5t69 42.5zM458 286q-2 41 -14 75.5t-32.5 59t-50 38.5t-65.5 14q-75 0 -121 -48t-49 -139h332z" />
    <glyph glyph-name="igrave" unicode="&#xec;" horiz-adv-x="219" 
d="M82 590l-118 115h101l75 -115h-58zM74 524h72v-524h-72v524z" />
    <glyph glyph-name="iacute" unicode="&#xed;" horiz-adv-x="219" 
d="M60 590l74 115h100l-115 -115h-59zM74 524h72v-524h-72v524z" />
    <glyph glyph-name="icircumflex" unicode="&#xee;" horiz-adv-x="219" 
d="M152 601l-58 53l-55 -53h-76l113 111h42l107 -111h-73zM145 524v-524h-72v524h72z" />
    <glyph glyph-name="idieresis" unicode="&#xef;" horiz-adv-x="219" 
d="M15 707q21 0 34 -12t13 -35q0 -24 -13 -36t-34 -12q-20 0 -33 12t-13 36q0 23 13 35t33 12zM182 707q20 0 32.5 -12t12.5 -35q0 -24 -12.5 -36t-32.5 -12q-21 0 -34 12t-13 36q0 23 13 35t34 12zM74 524h72v-524h-72v524z" />
    <glyph glyph-name="eth" unicode="&#xf0;" horiz-adv-x="600" 
d="M400 654q78 -75 112.5 -167.5t34.5 -203.5q0 -72 -17.5 -127t-49.5 -92.5t-77.5 -56.5t-102.5 -19q-48 0 -93 16t-79.5 49.5t-55 86t-20.5 124.5t20 123.5t53 85t76.5 49.5t90.5 16q52 0 93 -20t70 -57q-20 53 -49 93.5t-64 72.5l-128 -62l-22 42l110 53q-18 14 -37.5 26
t-39.5 23l34 44q57 -30 102 -66l101 49l22 -42zM302 52q38 0 69.5 14.5t54.5 41.5t35.5 66t12.5 88t-13.5 88t-37 66t-56 41.5t-70.5 14.5q-78 0 -124 -55.5t-46 -154.5q0 -49 12.5 -88t35.5 -66t55 -41.5t71 -14.5h1z" />
    <glyph glyph-name="ntilde" unicode="&#xf1;" horiz-adv-x="594" 
d="M429 686q-11 -36 -33 -56.5t-52 -20.5q-16 0 -29 5.5t-25 12.5t-24 12.5t-26 5.5q-22 0 -34 -11t-21 -29l-39 20q14 42 39.5 59t50.5 17q16 0 30 -5.5t26.5 -12.5t24.5 -12.5t24 -5.5q19 0 30.5 14t18.5 30zM151 442q17 20 35.5 37t40.5 29.5t49 19.5t60 7
q81 0 126.5 -43t45.5 -129v-364h-72v344q0 37 -7.5 61.5t-22 39t-34.5 20.5t-44 6q-53 0 -95 -24.5t-77 -78.5v-367h-70v524h51l11 -81z" />
    <glyph glyph-name="ograve" unicode="&#xf2;" horiz-adv-x="611" 
d="M278 590l-118 115h101l75 -115h-58zM306 536q49 0 94.5 -16t80.5 -49t56 -85t21 -124t-21 -124t-56 -85t-80.5 -49t-94.5 -16t-94.5 16t-80.5 49t-56 85t-21 124t21 124t56 85t80.5 49t94.5 16zM306 472q-81 0 -130 -55.5t-49 -155.5t49 -155.5t130 -55.5q82 0 130.5 56
t48.5 155t-48.5 155t-130.5 56z" />
    <glyph glyph-name="oacute" unicode="&#xf3;" horiz-adv-x="611" 
d="M257 590l74 115h100l-115 -115h-59zM306 536q49 0 94.5 -16t80.5 -49t56 -85t21 -124t-21 -124t-56 -85t-80.5 -49t-94.5 -16t-94.5 16t-80.5 49t-56 85t-21 124t21 124t56 85t80.5 49t94.5 16zM306 472q-81 0 -130 -55.5t-49 -155.5t49 -155.5t130 -55.5q82 0 130.5 56
t48.5 155t-48.5 155t-130.5 56z" />
    <glyph glyph-name="ocircumflex" unicode="&#xf4;" horiz-adv-x="611" 
d="M159 601l113 111h42l107 -111h-73l-58 53l-55 -53h-76zM305 537q49 0 94.5 -16t80.5 -49t56 -85t21 -124t-21 -124t-56 -85t-80.5 -49t-94.5 -16t-94.5 16t-80.5 49t-56 85t-21 124t21 124t56 85t80.5 49t94.5 16zM305 52q82 0 130.5 56t48.5 155t-48.5 155t-130.5 56
q-81 0 -130 -55.5t-49 -155.5t49 -155.5t130 -55.5z" />
    <glyph glyph-name="otilde" unicode="&#xf5;" horiz-adv-x="611" 
d="M432 685q-11 -36 -33 -56.5t-52 -20.5q-16 0 -29 5.5t-25 12.5t-24 12.5t-26 5.5q-22 0 -34 -11t-21 -29l-39 20q14 42 39.5 59t49.5 17q16 0 30 -5.5t26.5 -12.5t24.5 -12.5t24 -5.5q19 0 30.5 14t19.5 30zM305 536q49 0 94.5 -16t80.5 -49t56 -85t21 -124t-21 -124
t-56 -85t-80.5 -49t-94.5 -16t-94.5 16t-80.5 49t-56 85t-21 124t21 124t56 85t80.5 49t94.5 16zM305 472q-81 0 -130 -55.5t-49 -155.5t49 -155.5t130 -55.5q82 0 130.5 56t48.5 155t-48.5 155t-130.5 56z" />
    <glyph glyph-name="odieresis" unicode="&#xf6;" horiz-adv-x="611" 
d="M211 707q21 0 34 -12t13 -35q0 -24 -13 -36t-34 -12q-20 0 -33 12t-13 36q0 23 13 35t33 12zM378 707q20 0 32.5 -12t12.5 -35q0 -24 -12.5 -36t-32.5 -12q-21 0 -34 12t-13 36q0 23 13 35t34 12zM305 537q49 0 94.5 -16t80.5 -49t56 -85t21 -124t-21 -124t-56 -85
t-80.5 -49t-94.5 -16t-94.5 16t-80.5 49t-56 85t-21 124t21 124t56 85t80.5 49t94.5 16zM305 473q-81 0 -130 -55.5t-49 -155.5t49 -155.5t130 -55.5q82 0 130.5 56t48.5 155t-48.5 155t-130.5 56z" />
    <glyph glyph-name="divide" unicode="&#xf7;" horiz-adv-x="598" 
d="M300 534q23 0 42 -14.5t19 -46.5t-18.5 -46t-41.5 -14q-22 0 -40.5 14t-18.5 46t18.5 47t40.5 15zM55 231v60h491v-60h-491zM298 110q23 0 42 -14t19 -46t-18.5 -46.5t-41.5 -14.5q-22 0 -40.5 14.5t-18.5 46.5t18.5 46.5t40.5 14.5z" />
    <glyph glyph-name="oslash" unicode="&#xf8;" horiz-adv-x="611" 
d="M454 490q46 -32 74.5 -89t28.5 -142q0 -72 -21 -124t-56 -85t-80.5 -49t-94.5 -16q-55 0 -102 19l-50 -97l-47 24l52 98q-47 32 -76 89t-29 143q0 72 21 124t56 85t80.5 49t94.5 16q27 0 53.5 -4.5t51.5 -14.5l47 93l45 -24zM380 456q-33 15 -74 15q-81 0 -130 -55.5
t-49 -155.5q0 -57 16.5 -100t46.5 -70zM235 63q33 -14 71 -14q82 0 130.5 56t48.5 155q0 57 -16.5 99.5t-46.5 69.5z" />
    <glyph glyph-name="ugrave" unicode="&#xf9;" horiz-adv-x="589" 
d="M281 590l-118 115h101l75 -115h-58zM449 -1l-16 80q-34 -42 -76 -67t-105 -25q-34 0 -64 10t-52.5 32.5t-35.5 58t-13 86.5v349h72v-333q0 -39 8 -65.5t22.5 -42.5t33.5 -23t40 -7q28 0 52.5 8.5t45 22t38 31.5t33.5 36v374h72v-524z" />
    <glyph glyph-name="uacute" unicode="&#xfa;" horiz-adv-x="589" 
d="M260 590l74 115h100l-115 -115h-59zM449 -1l-16 80q-34 -42 -76 -67t-105 -25q-34 0 -64 10t-52.5 32.5t-35.5 58t-13 86.5v349h72v-333q0 -39 8 -65.5t22.5 -42.5t33.5 -23t40 -7q28 0 52.5 8.5t45 22t38 31.5t33.5 36v374h72v-524z" />
    <glyph glyph-name="ucircumflex" unicode="&#xfb;" horiz-adv-x="589" 
d="M162 601l113 111h42l107 -111h-73l-58 53l-55 -53h-76zM501 -1h-54l-16 80q-34 -42 -76 -67t-105 -25q-34 0 -64 10t-52.5 32.5t-35.5 58t-13 86.5v349h72v-333q0 -39 8 -65.5t22.5 -42.5t33.5 -23t40 -7q28 0 52.5 8.5t45 22t38 31.5t33.5 36v374h72z" />
    <glyph glyph-name="udieresis" unicode="&#xfc;" horiz-adv-x="589" 
d="M214 707q21 0 34 -12t13 -35q0 -24 -13 -36t-34 -12q-20 0 -33 12t-13 36q0 23 13 35t33 12zM381 707q20 0 32.5 -12t12.5 -35q0 -24 -12.5 -36t-32.5 -12q-21 0 -34 12t-13 36q0 23 13 35t34 12zM448 -1l-16 80q-34 -42 -76 -67t-105 -25q-34 0 -64 10t-52.5 32.5
t-35.5 58t-13 86.5v349h72v-333q0 -39 8 -65.5t22.5 -42.5t33.5 -23t40 -7q28 0 52.5 8.5t45 22t38 31.5t33.5 36v374h72v-524z" />
    <glyph glyph-name="yacute" unicode="&#xfd;" horiz-adv-x="555" 
d="M237 591l74 115h100l-115 -115h-59zM321 -33q-30 -83 -76 -129t-111 -46q-28 0 -46 3.5t-32 8.5l13 56q2 -1 18.5 -5t37.5 -4q36 0 67.5 27.5t49.5 75.5l11 30l-223 540h76l182 -466l165 466h74z" />
    <glyph glyph-name="thorn" unicode="&#xfe;" horiz-adv-x="591" 
d="M157 446q31 42 70.5 65.5t96.5 23.5q44 0 82.5 -15.5t67.5 -48t46 -82t17 -116.5q0 -65 -20 -118t-53 -90t-76 -57t-88 -20q-48 0 -80.5 9.5t-61.5 27.5v-232h-72v907h68v-253zM159 92q28 -23 56 -32.5t72 -9.5q31 0 62.5 14t57 41.5t41.5 69t16 95.5t-13 92t-34 62.5
t-48.5 35.5t-55.5 11q-50 0 -87 -28t-68 -81z" />
    <glyph glyph-name="ydieresis" unicode="&#xff;" horiz-adv-x="555" 
d="M191 708q21 0 34 -12t13 -35q0 -24 -13 -36t-34 -12q-20 0 -33 12t-13 36q0 23 13 35t33 12zM358 708q20 0 32.5 -12t12.5 -35q0 -24 -12.5 -36t-32.5 -12q-21 0 -34 12t-13 36q0 23 13 35t34 12zM320 -33q-30 -83 -76 -129t-111 -46q-28 0 -46 3.5t-32 8.5l13 56
q2 -1 18.5 -5t37.5 -4q36 0 67.5 27.5t49.5 75.5l11 30l-223 540h76l182 -466l165 466h74z" />
    <glyph glyph-name="OE" unicode="&#x152;" horiz-adv-x="861" 
d="M507 636v-251h262v-62h-262v-261h302v-63h-394q-77 0 -141 23t-110 67t-71.5 109.5t-25.5 151.5q0 85 25.5 150.5t72 110t111.5 67t143 22.5h391v-63zM410 637q-63 0 -113 -20.5t-84 -58.5t-52 -91t-18 -117q0 -65 17.5 -118t51.5 -90.5t84 -58.5t114 -21h23v575h-23z
" />
    <glyph glyph-name="oe" unicode="&#x153;" horiz-adv-x="1005" 
d="M925 62q-31 -29 -80.5 -53t-118.5 -24q-70 0 -129 31t-90 101q-14 -35 -37 -59.5t-52 -40.5t-61.5 -23.5t-63.5 -7.5q-48 0 -91.5 18t-76.5 52.5t-52.5 85.5t-19.5 118t19.5 118t53 85.5t77.5 52.5t92 18q31 0 62.5 -7.5t60 -24t51.5 -41.5t38 -61q13 36 34.5 61.5
t48.5 42t58.5 24t63.5 7.5q59 0 102 -21.5t71.5 -56t42.5 -78t14 -86.5q0 -7 -0.5 -16t-1 -17.5t-1 -15t-0.5 -7.5h-388q0 -26 8 -58.5t27.5 -61t53.5 -48t87 -19.5t93 18t69 44zM866 293q-2 81 -44 129.5t-114 48.5q-70 0 -111.5 -46.5t-46.5 -131.5h316zM298 49
q79 0 124.5 55.5t45.5 154.5q0 98 -45 154t-125 56q-79 0 -126.5 -55t-47.5 -155q0 -99 47 -154.5t126 -55.5h1z" />
    <glyph glyph-name="Scaron" unicode="&#x160;" horiz-adv-x="569" 
d="M141 882h72l59 -59l62 59h69l-103 -106h-51zM477 591q-42 27 -89 42.5t-96 15.5q-69 0 -110 -30.5t-41 -86.5q0 -30 16 -52t44 -40t65.5 -33.5t80.5 -32.5q41 -17 74.5 -34t57 -39t36.5 -49.5t13 -63.5q0 -44 -16.5 -81t-47.5 -63.5t-76 -41t-102 -14.5q-59 0 -121 16.5
t-111 47.5l28 61q44 -26 97 -40.5t102 -14.5q91 0 131 35.5t40 87.5q0 27 -12.5 47.5t-35.5 37t-55.5 31t-72.5 29.5q-42 16 -80.5 34t-67.5 41t-46 55t-17 77q0 39 15.5 71.5t45 56.5t71 37.5t93.5 13.5q40 0 73 -6t59.5 -15t48 -20.5t38.5 -22.5z" />
    <glyph glyph-name="scaron" unicode="&#x161;" horiz-adv-x="472" 
d="M104 705h72l59 -59l62 59h69l-103 -106h-51zM388 429q-30 19 -65.5 32t-76.5 13q-53 0 -84 -23t-31 -59q0 -22 10 -37t27 -25.5t39.5 -18.5t46.5 -15q31 -10 62 -21t55.5 -27.5t39.5 -41.5t15 -62q0 -69 -51.5 -113t-148.5 -44q-47 0 -94.5 15.5t-80.5 42.5l26 60
q29 -26 69 -40t77 -14q66 0 97.5 26.5t31.5 63.5q0 22 -10.5 36t-29.5 24.5t-45 18.5t-56 19q-35 12 -62.5 25t-47 29.5t-30 40t-10.5 56.5q0 34 14 61.5t39 46t59 28.5t73 10q53 0 98.5 -15.5t75.5 -38.5z" />
    <glyph glyph-name="Ydieresis" unicode="&#x178;" horiz-adv-x="651" 
d="M233 883q21 0 34 -12t13 -35q0 -24 -13 -36t-34 -12q-20 0 -33 12t-13 36q0 23 13 35t33 12zM400 883q20 0 32.5 -12t12.5 -35q0 -24 -12.5 -36t-32.5 -12q-21 0 -34 12t-13 36q0 23 13 35t34 12zM276 0v280l-246 420h88l196 -351l195 351h84l-244 -420v-280h-73z" />
    <glyph glyph-name="Zcaron" unicode="&#x17d;" horiz-adv-x="658" 
d="M184 882h72l59 -59l62 59h69l-103 -106h-51zM587 -1h-525v61l418 573h-394v66h482v-56l-419 -578h439z" />
    <glyph glyph-name="zcaron" unicode="&#x17e;" horiz-adv-x="471" 
d="M84 705h72l59 -59l62 59h69l-103 -106h-51zM434 1h-393v55l295 404h-285v64h373v-60l-302 -401h311z" />
    <glyph glyph-name="florin" unicode="&#x192;" horiz-adv-x="457" 
d="M179 622q0 38 11.5 65t32.5 44t49.5 24.5t62.5 7.5q46 0 74 -11l-14 -60q-2 1 -16.5 4.5t-41.5 3.5q-37 0 -60 -19t-23 -57v-100h137v-58h-137v-436q0 -38 -11.5 -65t-32 -44t-48.5 -25t-61 -8q-23 0 -42 3t-35 8l14 59q7 -2 15 -4q13 -3 36 -3q43 0 67 18.5t24 58.5v438
h-84v58h84z" />
    <glyph glyph-name="circumflex" unicode="&#x2c6;" horiz-adv-x="310" 
d="M155 654l-55 -53h-76l113 111h42l107 -111h-73z" />
    <glyph glyph-name="tilde" unicode="&#x2dc;" horiz-adv-x="310" 
d="M296 685q-11 -36 -33 -56.5t-52 -20.5q-16 0 -29 5.5t-25 12.5t-24 12.5t-26 5.5q-22 0 -34 -11t-21 -29l-39 20q14 42 39.5 59t49.5 17q16 0 30 -5.5t26.5 -12.5t24.5 -12.5t24 -5.5q19 0 30.5 14t19.5 30z" />
    <glyph glyph-name="endash" unicode="&#x2013;" horiz-adv-x="606" 
d="M78 229v63h446v-63h-446z" />
    <glyph glyph-name="emdash" unicode="&#x2014;" horiz-adv-x="913" 
d="M81 229v63h774v-63h-774z" />
    <glyph glyph-name="quoteleft" unicode="&#x2018;" horiz-adv-x="216" 
d="M138 698q-5 -5 -21 -24t-21 -44q22 -4 37 -19.5t15 -41.5q0 -28 -17 -43.5t-41 -15.5q-29 0 -45 19.5t-16 50.5q0 38 20.5 71t65.5 62z" />
    <glyph glyph-name="quoteright" unicode="&#x2019;" horiz-adv-x="249" 
d="M77 525q5 5 21 24t21 44q-22 4 -37 19.5t-15 41.5q0 28 17.5 43.5t41.5 15.5q29 0 45 -19.5t16 -50.5q0 -38 -20.5 -71t-65.5 -62z" />
    <glyph glyph-name="quotesinglbase" unicode="&#x201a;" horiz-adv-x="216" 
d="M78 -79q1 1 7 7.5t13 16t13.5 21t8.5 24.5q-22 2 -37.5 18.5t-15.5 45.5q0 27 17 42.5t41 15.5q29 0 45 -19.5t16 -50.5q0 -39 -21 -72t-66 -62z" />
    <glyph glyph-name="quotedblleft" unicode="&#x201c;" horiz-adv-x="365" 
d="M139 699l-8 -8t-13 -16t-13 -22t-8 -25q20 -3 36.5 -18t16.5 -44q0 -27 -17 -42.5t-41 -15.5q-29 0 -45 19.5t-16 50.5q0 39 21 72t66 62zM289 700l-8 -8t-13 -15.5t-13.5 -21t-8.5 -24.5q20 -2 36.5 -18.5t16.5 -44.5q0 -27 -17 -42.5t-41 -15.5q-29 0 -45 19.5
t-16 50.5q0 39 21 72t66 62z" />
    <glyph glyph-name="quotedblright" unicode="&#x201d;" horiz-adv-x="365" 
d="M75 521l7.5 7.5t13.5 16t13.5 21t8.5 24.5q-20 2 -36.5 18.5t-16.5 44.5q0 27 17 42.5t41 15.5q29 0 45 -19.5t16 -50.5q0 -39 -21 -72t-66 -62zM225 519l7.5 7.5t13.5 16.5t13 22t8 25q-20 3 -36.5 18t-16.5 44q0 27 17 42.5t41 15.5q29 0 45 -19.5t16 -50.5
q0 -39 -21 -72t-66 -62z" />
    <glyph glyph-name="quotedblbase" unicode="&#x201e;" horiz-adv-x="365" 
d="M75 -78l7.5 7.5t13.5 16t13.5 21t8.5 24.5q-20 2 -36.5 18.5t-16.5 44.5q0 27 17 42.5t41 15.5q29 0 45 -19.5t16 -50.5q0 -39 -21 -72t-66 -62zM225 -80l7.5 7.5t13.5 16.5t13 22t8 25q-20 3 -36.5 18t-16.5 44q0 27 17 42.5t41 15.5q29 0 45 -19.5t16 -50.5
q0 -39 -21 -72t-66 -62z" />
    <glyph glyph-name="dagger" unicode="&#x2020;" horiz-adv-x="415" 
d="M242 463v-463h-70v463h-136v61h136v176h70v-176h136v-61h-136z" />
    <glyph glyph-name="daggerdbl" unicode="&#x2021;" horiz-adv-x="454" 
d="M261 348h128v-63h-128v-286h-69v286h-127v63h127v118h-127v62h127v173h69v-173h128v-62h-128v-118z" />
    <glyph glyph-name="bullet" unicode="&#x2022;" horiz-adv-x="320" 
d="M159 383q31 0 57 -20.5t26 -64.5t-26 -65t-57 -21q-32 0 -57.5 21t-25.5 65t25.5 64.5t57.5 20.5z" />
    <glyph glyph-name="ellipsis" unicode="&#x2026;" horiz-adv-x="877" 
d="M161 109q26 0 42.5 -16t16.5 -45q0 -30 -16.5 -45.5t-42.5 -15.5t-42.5 15.5t-16.5 45.5q0 29 16.5 45t42.5 16zM438 109q26 0 42.5 -16t16.5 -45q0 -30 -16.5 -45.5t-42.5 -15.5t-43 15.5t-17 45.5q0 29 17 45t43 16zM715 109q26 0 43 -16t17 -45q0 -30 -17 -45.5
t-43 -15.5t-43 15.5t-17 45.5q0 29 17 45t43 16z" />
    <glyph glyph-name="perthousand" unicode="&#x2030;" horiz-adv-x="1092" 
d="M185 711q31 0 57.5 -10.5t46 -30t31 -49t11.5 -66.5q0 -38 -11 -67t-30.5 -48.5t-46 -30t-57.5 -10.5q-30 0 -57.5 10t-47.5 30t-32 49.5t-12 67.5t12 67t32 49t47 30t57 10v-1zM111 -1l471 700h62l-472 -700h-61zM185 660q-40 0 -63.5 -27t-23.5 -77q0 -51 23.5 -78
t63.5 -27q42 0 63.5 27t21.5 78q0 50 -21.5 77t-63.5 27zM910 300q30 0 57 -10.5t46.5 -30.5t31 -49t11.5 -67t-11.5 -67t-31 -48.5t-46 -30t-56.5 -10.5q-31 0 -58 10t-47.5 30t-32.5 49.5t-12 67.5t12 67.5t32 49.5t47.5 30t57.5 10v-1zM564 299q30 0 57 -10.5t46.5 -30.5
t31 -49t11.5 -67t-11.5 -67t-31 -48.5t-46 -30t-56.5 -10.5q-31 0 -58 10t-47.5 30t-32.5 49.5t-12 67.5t12 67.5t32 49.5t47.5 30t57.5 10v-1zM909 248q-40 0 -63 -27.5t-23 -77.5t23 -77.5t63 -27.5q42 0 63 27.5t21 77.5t-21 77.5t-63 27.5zM563 248q-40 0 -63 -27.5
t-23 -77.5t23 -77.5t63 -27.5q42 0 63 27.5t21 77.5t-21 77.5t-63 27.5z" />
    <glyph glyph-name="guilsinglleft" unicode="&#x2039;" horiz-adv-x="354" 
d="M155 255l119 -143l-44 -38l-150 180l148 181l46 -37z" />
    <glyph glyph-name="guilsinglright" unicode="&#x203a;" horiz-adv-x="366" 
d="M132 75l-45 38l119 143l-119 143l47 37l148 -181z" />
    <glyph glyph-name="Euro" unicode="&#x20ac;" horiz-adv-x="714" 
d="M673 69q-17 -14 -40 -28.5t-52.5 -27t-65 -20.5t-77.5 -8q-50 0 -94.5 15t-81.5 46.5t-63.5 79t-38.5 113.5h-95v59h88q-1 12 -1.5 24.5t-0.5 26.5q0 12 0.5 24t1.5 23h-87v59h95q12 66 39 114.5t65 79.5t85 46t100 15q42 0 76 -7t61 -18t48 -24.5t36 -26.5l-42 -53
q-34 24 -79 42t-99 18q-78 0 -134 -46t-76 -139h369l-14 -59h-364q-1 -11 -1.5 -22t-0.5 -23q0 -27 3 -52h347l-14 -59h-322q23 -89 76.5 -136t122.5 -47q60 0 106 19t84 47z" />
    <glyph glyph-name="trademark" unicode="&#x2122;" horiz-adv-x="851" 
d="M240 645v-309h-61v309h-111v55h283v-55h-111zM727 335v228l-124 -214h-20l-118 214v-227h-60v363h47l143 -261l149 261h44v-363z" />
    </font>
</defs>
</svg>
